<?xml version="1.0" encoding="utf-8" ?><svg xmlns="http://www.w3.org/2000/svg" xmlns:xlink="http://www.w3.org/1999/xlink" width="1024" height="1024" viewBox="0 0 1024 1024"><path fill="#F4F1E5" d="M0 0L1024 0L1024 1024L0 1024L0 0Z"/><path fill="#17243E" d="M363.272 364.904C388.972 364.336 416.329 364.802 442.206 364.735C443.193 368.156 444.045 372.516 444.832 376.06L455.814 376.003C461.502 397.713 466.432 421.64 471.423 443.651L503.373 584.533C509.031 609.493 514.791 637.482 521.154 662.017L458.753 661.978L455.992 648.963L446.483 648.802C443.09 633.23 439.799 617.636 436.611 602.021L383.22 601.991L371.083 662.029L312.09 661.946C312.793 658.686 314.437 652.012 314.772 648.957L299.796 648.932C301.758 641.746 303.626 631.962 305.274 624.548L316.37 574.443L345.056 446.104C350.914 419.669 356.797 391.063 363.272 364.904Z"/><path fill="#F8222A" d="M444.832 376.06L455.814 376.003C461.502 397.713 466.432 421.64 471.423 443.651L503.373 584.533C509.031 609.493 514.791 637.482 521.154 662.017L458.753 661.978L455.992 648.963L506.339 648.936L444.832 376.06Z"/><path fill="#F8222A" d="M369.735 588.565L433.798 588.573L436.611 602.021L383.22 601.991L371.083 662.029L312.09 661.946C312.793 658.686 314.437 652.012 314.772 648.957L357.356 648.961C361.823 629.323 365.066 608.346 369.735 588.565Z"/><path fill="#F8222A" d="M401.48 427.834C404.518 439.288 407.947 456.481 409.991 468.259C414.982 490.323 419.167 512.904 423.827 535.075L396.681 535.164C391.273 535.3 385.51 535.158 380.074 535.117C386.522 499.646 395.296 463.388 401.48 427.834Z"/><path fill="#F4F1E5" d="M396.681 535.164C397.563 528.599 399.509 519.933 400.815 513.311L409.991 468.259C414.982 490.323 419.167 512.904 423.827 535.075L396.681 535.164Z"/><path fill="#17243E" d="M779.232 364.872C805.235 364.473 832.091 364.805 858.182 364.775C859.001 368.534 859.844 372.288 860.711 376.036L871.765 376.035L936.846 661.949C916.407 662 895.169 662.26 874.762 661.961L871.775 648.938C868.726 648.841 865.399 648.889 862.325 648.872C859.515 633.822 855.588 617.13 852.384 602.006L799.004 601.999C795.204 622.064 791.144 642.078 786.824 662.038L727.749 661.966L730.713 648.953L715.647 648.923C720.794 628.681 725.364 605.097 729.965 584.348L763.379 435.078C768.499 412.438 773.535 387.118 779.232 364.872Z"/><path fill="#F8222A" d="M860.711 376.036L871.765 376.035L936.846 661.949C916.407 662 895.169 662.26 874.762 661.961L871.775 648.938L922.33 648.934C913.414 612.387 905.341 573.26 897.072 536.476L860.711 376.036Z"/><path fill="#F8222A" d="M785.317 588.628L849.796 588.592C850.607 593.073 851.469 597.544 852.384 602.006L799.004 601.999C795.204 622.064 791.144 642.078 786.824 662.038L727.749 661.966L730.713 648.953L773.229 648.956C777.516 630.063 781.557 607.786 785.317 588.628Z"/><path fill="#F8222A" d="M817.444 427.783C820.277 437.914 823.921 457.43 825.96 468.283C830.943 490.374 834.708 513.006 839.735 535.083C831.23 535.103 820.601 534.816 812.279 535.191C806.938 535.309 801.254 535.219 795.883 535.215C802.384 499.844 810.468 463.308 817.444 427.783Z"/><path fill="#F4F1E5" d="M812.279 535.191C817.349 514.76 820.505 488.289 825.96 468.283C830.943 490.374 834.708 513.006 839.735 535.083C831.23 535.103 820.601 534.816 812.279 535.191Z"/><path fill="#17243E" d="M93.7982 604.762C93.1683 594.553 93.547 580.296 93.5503 569.884L93.5821 506.359L93.5309 450.073C93.5201 442.856 92.6051 414.818 95.4384 410.425C102.663 399.222 125.166 378.693 135.094 368.454C141.569 361.776 156.092 362.926 164.444 362.863L193.689 362.666C206.13 362.566 218.747 362.169 231.181 362.575C233.924 362.664 238.669 364.11 240.848 365.865C247.207 370.986 252.257 377.844 257.98 383.667C264.471 390.417 271.24 396.816 277.116 404.079C296.735 419.331 295.242 422.084 295.173 445.909L295.07 478.943L231.084 479.007L231.073 465.538L220.021 465.538L219.844 435.003L216.725 431.522L182.704 431.517C177.214 436.694 171.815 441.967 166.512 447.335C166.067 491.744 165.898 536.156 166.004 580.567C169.527 584.763 172.315 587.778 176.112 591.688C183.373 591.062 198.805 591.508 206.93 591.493C210.37 588.686 217.29 581.366 221.22 577.733C220.929 568.025 221.068 557.739 221.046 547.988L280.518 548.025L280.6 558.365C285.32 558.284 290.534 558.084 295.215 558.196C295.108 568.157 296.351 609.812 293.447 615.198C290.71 620.274 285.032 624.785 280.932 628.799C273.435 636.137 254.7 656.142 246.218 660.483C240.828 663.242 170.288 662.131 159.442 662.019C151.903 661.942 147.312 660.83 141.876 655.244C139.244 652.54 136.917 649.543 134.572 646.592C131.681 644.175 128.981 641.655 126.389 638.919C115.599 627.531 104.216 616.481 93.7982 604.762Z"/><path fill="#F8222A" d="M280.6 558.365C285.32 558.284 290.534 558.084 295.215 558.196C295.108 568.157 296.351 609.812 293.447 615.198C290.71 620.274 285.032 624.785 280.932 628.799C273.435 636.137 254.7 656.142 246.218 660.483C240.828 663.242 170.288 662.131 159.442 662.019C151.903 661.942 147.312 660.83 141.876 655.244C139.244 652.54 136.917 649.543 134.572 646.592C151.739 651.709 179.804 647.922 198.26 648.643C209.56 649.085 223.147 648.751 234.362 647.47C236.145 647.266 239.866 644.375 241.326 643.169C248.624 635.635 276.224 610.446 280.598 603.416C281.41 589.631 280.823 572.363 280.6 558.365Z"/><path fill="#F8222A" d="M171.818 419.044C182.797 419.137 193.777 419.148 204.757 419.078C208.675 422.079 213.346 427.695 216.725 431.522L182.704 431.517C177.214 436.694 171.815 441.967 166.512 447.335C166.067 491.744 165.898 536.156 166.004 580.567C169.527 584.763 172.315 587.778 176.112 591.688C173.857 591.937 170.565 591.897 168.222 591.939C162.852 586.313 157.276 580.955 151.901 575.315L151.845 438.555C157.287 432.503 165.776 424.797 171.818 419.044Z"/><path fill="#F8222A" d="M277.116 404.079C296.735 419.331 295.242 422.084 295.173 445.909L295.07 478.943L231.084 479.007L231.073 465.538C247.343 465.507 264.315 465.709 280.529 465.26C280.679 454.502 280.737 443.744 280.705 432.985C280.68 421.928 281.427 414.507 277.116 404.079Z"/><path fill="#17243E" d="M597.842 364.855C635.169 364.517 672.642 365.129 709.96 364.704L709.921 375.091L724.313 375.01L724.356 429.116C719.582 429.205 714.808 429.329 710.035 429.488C710.039 448.816 711.106 610.488 709.228 614.86C706.237 621.824 680.382 646.207 673.274 653.314C670.534 656.054 666.572 660.127 662.848 661.365C653.383 664.511 606.855 663.536 594.579 663.503C585.718 663.479 577.426 663.102 570.75 656.443C567.677 653.378 564.982 649.896 562.103 646.648C560.621 645.441 559.198 644.05 557.848 642.698C551.019 635.858 526.053 611.747 522.573 605.206C519.393 599.23 520.937 552.154 520.961 541.228C540.181 540.44 560.249 540.315 579.538 539.928L579.533 550.799C584.297 550.853 589.062 550.865 593.827 550.836C593.946 562.459 593.376 578.956 594.314 590.754C594.379 591.575 595.669 593.027 596.286 593.72C599.278 593.163 618.933 593.411 623.113 593.395C627.168 589.861 633.508 583.101 637.446 579.148C636.687 530.408 637.169 478.884 637.414 430.005C629.319 429.559 617.408 429.951 609.014 429.955C609.065 425.685 609.042 421.414 608.944 417.144L597.827 417.184L597.842 364.855Z"/><path fill="#F8222A" d="M709.921 375.091L724.313 375.01L724.356 429.116C719.582 429.205 714.808 429.329 710.035 429.488C710.039 448.816 711.106 610.488 709.228 614.86C706.237 621.824 680.382 646.207 673.274 653.314C670.534 656.054 666.572 660.127 662.848 661.365C653.383 664.511 606.855 663.536 594.579 663.503C585.718 663.479 577.426 663.102 570.75 656.443C567.677 653.378 564.982 649.896 562.103 646.648L564.266 647.465C572.552 650.604 586.223 650.462 595.316 650.143C613.334 649.511 633.424 651.575 650.989 648.216C654.934 647.461 695.193 607.121 695.416 603.613C696.394 588.214 695.888 569.972 695.879 554.819L695.864 417.103C700.375 417.247 705.295 417.126 709.838 417.102C710.133 403.268 709.947 388.964 709.921 375.091Z"/><path fill="#F8222A" d="M579.533 550.799C584.297 550.853 589.062 550.865 593.827 550.836C593.946 562.459 593.376 578.956 594.314 590.754C594.379 591.575 595.669 593.027 596.286 593.72L594.963 593.797C591.935 592.672 582.017 581.763 579.609 578.809C579.354 569.624 579.511 560.017 579.533 550.799Z"/><path fill="#F8222A" d="M608.944 417.144C618.34 417.062 627.738 417.068 637.134 417.164C637.279 421.447 637.46 425.719 637.414 430.005C629.319 429.559 617.408 429.951 609.014 429.955C609.065 425.685 609.042 421.414 608.944 417.144Z"/></svg>