<?xml version="1.0" encoding="utf-8" ?><svg xmlns="http://www.w3.org/2000/svg" xmlns:xlink="http://www.w3.org/1999/xlink" width="1024" height="1024" viewBox="0 0 1024 1024"><path fill="#17233F" d="M511.013 214.206C511.086 212.668 510.977 211.43 511.703 210.103C513.349 211.471 517.912 236.017 518.809 240.235C528.881 286.672 538.284 333.252 547.016 379.96L557.544 436.843C558.895 444.153 560.211 453.345 561.746 460.333C568.086 461.009 577.504 463.134 583.945 464.453C599.205 467.655 614.448 470.939 629.673 474.302L753.941 500.132L792.041 508.392C797.782 509.634 808.229 512.19 813.642 512.661L806.035 514.353L646.709 548.6C619.553 554.318 591.228 559.811 564.311 566.119C553.546 619.705 542.464 673.227 531.066 726.681L518.696 784.311C516.879 792.676 515.17 802.113 513.127 810.255C513.05 811.903 513.227 811.51 512.666 812.959C509.909 809.645 465.462 588.428 460.722 564.742C438.039 560.849 410.752 554.417 387.77 549.647L257.733 522.758L219.63 514.87C217.671 514.449 214.16 514.175 212.627 513.294C213.81 512.306 215.442 512.184 217.019 511.859L374.419 478.557C403.259 472.397 431.194 466.077 460.241 460.8C464.887 441.159 468.384 418.065 472.661 397.886C485.561 337.029 496.93 274.777 511.013 214.206Z"/><path fill="#F8102B" d="M511.013 214.206C511.086 212.668 510.977 211.43 511.703 210.103C513.349 211.471 517.912 236.017 518.809 240.235C528.881 286.672 538.284 333.252 547.016 379.96L557.544 436.843C558.895 444.153 560.211 453.345 561.746 460.333C568.086 461.009 577.504 463.134 583.945 464.453C599.205 467.655 614.448 470.939 629.673 474.302L753.941 500.132L792.041 508.392C797.782 509.634 808.229 512.19 813.642 512.661L806.035 514.353C804.503 513.188 803.557 513.068 801.659 513.044C786.844 512.856 771.908 512.93 757.093 512.93L672.184 512.941C619.51 512.94 564.516 511.631 512.073 512.735C511.709 483.19 512.027 452.951 512.014 423.359L511.633 292.261C511.59 276.715 511.646 261.169 511.802 245.624C511.846 240.319 512.617 217.748 511.013 214.206Z"/><path fill="#F8102B" d="M217.019 511.859C224.279 514.149 258.165 513.729 267.616 513.732L324.467 513.733L447.708 513.594C469.036 513.566 490.806 513.963 512.048 513.464L512.603 729.33C512.612 740.311 510.84 804.402 513.127 810.255C513.05 811.903 513.227 811.51 512.666 812.959C509.909 809.645 465.462 588.428 460.722 564.742C438.039 560.849 410.752 554.417 387.77 549.647L257.733 522.758L219.63 514.87C217.671 514.449 214.16 514.175 212.627 513.294C213.81 512.306 215.442 512.184 217.019 511.859Z"/><path fill="#17233F" d="M623.374 387.324C627.403 390.318 632.253 396.635 636.536 400.394C629.09 409.827 611.247 427.263 602.496 436.27C598.698 433.069 592.626 426.435 589.057 422.693C600.545 411.246 611.918 398.977 623.374 387.324Z"/><path fill="#17233F" d="M420.524 589.339C423.944 591.294 431.249 599.502 433.84 602.713C423.93 613.541 410.758 627.085 400.4 637.365C395.767 633.128 391.393 628.662 386.962 624.216C398.479 613.162 409.075 600.624 420.524 589.339Z"/><path fill="#17233F" d="M602.312 589.774C604.91 591.12 632.445 620.132 636.663 624.327L624.089 637.724C621.64 636.782 592.083 606.172 590.152 603.267L602.312 589.774Z"/><path fill="#17233F" d="M399.549 386.536C401.735 387.5 430.476 417.174 433.971 420.667C429.899 425.419 425.689 430.051 421.348 434.558C409.59 423.108 399.259 411.405 386.929 400.391L399.549 386.536Z"/></svg>