<?xml version="1.0" encoding="utf-8" ?><svg xmlns="http://www.w3.org/2000/svg" xmlns:xlink="http://www.w3.org/1999/xlink" width="1024" height="1024" viewBox="0 0 1024 1024"><path fill="#182440" d="M422.002 171.513C432.955 171.307 444.887 171.778 456.017 171.766L533.074 171.472L578.98 171.728C587.764 171.742 595.952 171.239 604.739 171.92C613.643 181.747 625.559 192.786 635.127 202.349L708.562 275.403L708.838 453.988L539.764 453.998C540.401 443.613 539.953 428.483 539.962 417.828L539.942 336.879C535.832 336.397 529.751 336.548 525.503 336.4C512.76 335.956 499.976 336.391 487.213 336.523L487.173 412.615L487.16 442.31C487.156 454.157 486.286 469.444 490.119 480.432C495.342 495.403 508.078 506.587 521.976 513.403C516.32 515.257 507.266 522.435 503.07 526.648C495.942 533.67 490.947 542.566 488.664 552.307C485.258 566.694 486.829 592.221 486.892 607.933L487.017 684.014C502.431 684.017 524.446 683.086 539.442 683.889C538.558 649.396 539.672 611.835 539.5 576.987C573.686 576.621 608.505 576.96 642.75 576.972L709.013 576.879C708.423 613.716 709.484 650.691 708.595 687.542C708.111 707.629 707.98 727.498 708.591 747.588C705.866 751.115 698.712 757.762 695.286 761.119C686.811 769.375 678.39 777.685 670.023 786.05L624.704 831.551C619.255 836.996 608.959 848.012 603.413 852.616C569.745 850.423 533.244 852.934 499.22 852.105C474.106 851.493 447.488 851.86 422.359 852.591C417.732 849.035 411.259 842.23 407.065 837.976L382.521 812.866C361.853 791.798 338.619 769.302 318.62 747.836C318.974 741.679 318.696 733.544 318.66 727.203C318.571 715.344 318.575 703.484 318.672 691.625L319.055 611.658C319.255 564.815 325.508 541.374 281.08 512.831C288.808 508.53 295.863 503.119 302.02 496.77C320.561 477.679 318.897 464.336 318.935 439.608L318.991 404.327C319.08 361.514 319.534 317.991 318.986 275.233C322.034 271.314 328.305 265.456 331.999 261.879C338.96 255.182 345.848 248.41 352.661 241.563C367.687 226.16 382.815 210.858 398.044 195.657C405.397 188.207 414.494 178.217 422.002 171.513Z"/><path fill="#C2282D" d="M433.871 202.509L591.822 202.487C600.03 208.652 616.932 226.688 624.872 234.641L679.904 289.23C680.159 333.988 680.18 378.747 679.966 423.504L570.532 423.496L570.476 367.006C570.46 355.364 571.249 340.596 569.047 329.687C566.436 316.754 552.373 307.236 539.51 307.904C531.265 308.332 522.598 307.576 514.445 307.939C503.661 308.42 489.262 306.335 479.011 308.798C473.475 310.117 468.414 312.943 464.387 316.964C456.419 324.809 456.065 331.052 455.978 341.498L456.004 426.268C456.014 439.375 456.041 452.577 456.136 465.682C456.284 485.943 461.527 498.975 475.74 513.394C461.392 530.837 456.206 541.627 455.999 564.185L455.948 648.966C455.952 662.509 455.401 678.983 456.923 692.385C457.385 696.451 462.068 703.571 465.182 706.617C472.375 713.65 481.87 714.937 491.914 714.577C510.332 713.917 531.679 715.94 549.753 713.195C553.378 712.645 558.822 708.633 561.478 705.939C564.803 702.632 567.263 698.556 568.64 694.073C571.821 683.78 570.562 653.951 570.416 641.771L570.05 606.992L633.731 606.979C649.036 606.979 664.271 606.798 679.566 607.469L679.592 735.676L623.431 790.929C615.463 798.84 600.032 815.371 591.73 822C572.472 822.559 552.325 822.122 532.997 822.095L434.218 822.102C429.292 817.895 422.878 811.193 418.201 806.504L386.279 774.062C379.063 766.795 371.803 759.572 364.499 752.394C359.489 747.435 353.336 741.604 349.012 736.144C348.565 700.023 348.542 663.898 348.943 627.776L349.532 583.763C349.697 548.192 349.471 541.672 327.18 513.273C350.667 488.354 349.071 474.358 349.019 442.022L348.981 408.157L348.897 288.69C364.418 271.8 382.097 254.891 398.083 238.227C407.837 228.058 423.414 210.989 433.871 202.509Z"/></svg>