<?xml version="1.0" encoding="utf-8" ?><svg xmlns="http://www.w3.org/2000/svg" xmlns:xlink="http://www.w3.org/1999/xlink" width="2048" height="2048" viewBox="0 0 2048 2048"><path fill="#030303" d="M993.102 234.882C1428.96 217.888 1796.12 557.315 1813.35 993.159C1830.57 1429 1491.34 1796.35 1055.51 1813.81C619.345 1831.28 251.659 1491.74 234.419 1055.57C217.18 619.392 556.919 251.888 993.102 234.882ZM1049.51 1790.92C1472.91 1776.73 1804.55 1421.85 1790.09 998.457C1775.63 575.066 1420.54 243.642 997.161 258.368C574.154 273.081 243.087 627.785 257.535 1050.8C271.983 1473.82 626.481 1805.11 1049.51 1790.92Z"/><path fill="#E0322A" d="M602.496 888.6C599.467 882.994 593.499 874.695 590.149 869.759C521.673 768.271 632.728 719.002 721.829 745.663C783.271 764.048 815.181 783.792 862.703 826.477C889.371 852.473 913.124 880.561 933.51 911.9C936.966 917.213 942.507 926.099 947.848 929.148C901.431 936.371 854.017 941.383 807.525 948.632C797.486 950.197 787.607 951.649 777.455 952.29C790.706 964.355 903.815 1063.06 904.677 1070.51C876.38 1076.41 849.961 1085.15 820.833 1090.73C745.031 1104.85 664.573 1101.61 594.984 1064.95C550.835 1041.69 498.164 985.294 525.714 930.923C540.005 902.722 574.356 896.725 602.496 888.6Z"/><path fill="#E0322A" d="M1097.43 927.271C1103.47 923.091 1131.34 881.397 1139.63 871.271C1200.97 796.392 1294.23 730.181 1395.37 739.063C1438.38 743.03 1482.65 771.941 1474.97 820.64C1470 852.133 1458.1 862.673 1442.61 888.265C1470.46 894.366 1503.15 903.07 1519.45 928.517C1545.45 969.119 1513.88 1019.23 1481.06 1044.39C1400.61 1106.07 1290.71 1107.65 1196.11 1084.07C1179 1079.8 1161.89 1075.03 1144.83 1070.5L1144.37 1069.33C1152.34 1060.02 1170.02 1043.93 1179.38 1035C1209.8 1006.51 1240.44 978.276 1271.31 950.287C1269.94 950.215 1268.57 950.128 1267.2 950.028C1262.77 949.704 1239.79 946.954 1236.56 946.253C1222.53 943.203 1102.54 933.216 1097.43 927.271Z"/><path fill="#E0322A" d="M757.862 1389.84C756.586 1390.19 755.302 1390.51 754.012 1390.8C725.673 1397.26 686.425 1401.87 661.641 1384.41C609.26 1347.52 640.605 1261.8 667.981 1220.99C723.016 1138.94 811.045 1097.94 904.387 1079.07C900.201 1103.23 893.864 1128.96 888.337 1152.93L866.315 1249.93C916.485 1221.8 966.461 1193.33 1016.24 1164.52C1017.94 1166.04 1017.28 1165.08 1017.56 1167.93C1022.35 1262.31 1006.59 1355.19 943.008 1429.79C913.933 1461.8 868.624 1494.88 824.217 1497.44C764.664 1500.86 758.965 1433.46 757.862 1389.84Z"/><path fill="#E0322A" d="M1142.67 1081.11C1228.37 1093.33 1314.03 1136.58 1367.54 1205.96C1401.14 1249.53 1443.09 1339.39 1386.13 1382.59C1366.16 1397.73 1339.03 1398.47 1315.16 1394.61C1306.35 1393.15 1297.58 1391.43 1288.86 1389.45C1289.01 1412.03 1288.13 1434.56 1279.51 1455.73C1245.73 1538.71 1152.56 1482.78 1111.54 1438.87C1056.52 1379.96 1034.92 1302.6 1029.98 1223.92C1028.77 1203.87 1030.12 1184.3 1029.93 1164.56C1049.11 1174.17 1069.66 1186.35 1088.47 1197L1181.63 1249.78C1168.82 1194.16 1156.15 1136.39 1142.67 1081.11Z"/><path fill="#030303" d="M1023.25 763.371C1030.52 777.413 1089.53 915.969 1093.16 918.533C1094.37 923.034 1094.59 923.588 1097.43 927.271C1102.54 933.216 1222.53 943.203 1236.56 946.253C1239.79 946.954 1262.77 949.704 1267.2 950.028C1268.57 950.128 1269.94 950.215 1271.31 950.287C1240.44 978.276 1209.8 1006.51 1179.38 1035C1170.02 1043.93 1152.34 1060.02 1144.37 1069.33L1144.83 1070.5C1139.96 1073.07 1141.64 1076.13 1142.67 1081.11C1156.15 1136.39 1168.82 1194.16 1181.63 1249.78L1088.47 1197C1069.66 1186.35 1049.11 1174.17 1029.93 1164.56C1025.84 1160.51 1023.03 1159.01 1018.3 1163.09C1017.71 1165.62 1017.65 1165.38 1017.56 1167.93C1017.28 1165.08 1017.94 1166.04 1016.24 1164.52C966.461 1193.33 916.485 1221.8 866.315 1249.93L888.337 1152.93C893.864 1128.96 900.201 1103.23 904.387 1079.07C906.485 1075.12 906.713 1074.16 904.677 1070.51C903.815 1063.06 790.706 964.355 777.455 952.29C787.607 951.649 797.486 950.197 807.525 948.632C854.017 941.383 901.431 936.371 947.848 929.148C949.875 927.845 951.671 926.572 952.67 924.304C959.869 907.966 967.108 891.366 974.314 875.053L1023.25 763.371Z"/><path fill="#E0322A" d="M1023.75 592.436C1041.23 569.531 1063.64 538.095 1094.45 533.81C1108.32 531.88 1126.91 537.638 1137.09 547.265C1224.36 629.787 1198.85 765.695 1137.74 855.878C1122.7 878.074 1107.74 897.422 1093.16 918.533C1089.53 915.969 1030.52 777.413 1023.25 763.371L974.314 875.053C967.108 891.366 959.869 907.966 952.67 924.304C951.671 926.572 949.875 927.845 947.848 929.148C950.27 925.592 951.654 924.018 948.755 920.189C923.105 886.319 902.072 852.443 882.759 814.688C854.415 745.969 838.901 672.856 870.496 602.501C910.487 513.449 973.515 513.627 1023.75 592.436Z"/><path fill="#030303" d="M1324.46 1534.66C1358.88 1529.55 1390.96 1553.23 1396.19 1587.64C1401.43 1622.04 1377.85 1654.2 1343.47 1659.56C1308.91 1664.94 1276.56 1641.22 1271.3 1606.65C1266.04 1572.07 1289.87 1539.81 1324.46 1534.66ZM1343.45 1627.73C1376.27 1615.37 1355.4 1563.55 1323.52 1566.04C1292.79 1581.5 1315.2 1631.64 1343.45 1627.73Z"/><path fill="#030303" d="M1111.59 1599.43C1167.76 1599.31 1190.62 1651.58 1162.32 1697.02C1153.03 1711.96 1135.11 1716.63 1118.54 1719.32C1103.56 1721.2 1088.17 1723.34 1073.18 1724.55C1067.37 1689.49 1063.01 1641.27 1058.44 1604.68C1076.23 1602.75 1093.71 1600.38 1111.59 1599.43ZM1104.7 1693.16C1116.47 1692.32 1118.84 1692.46 1129.33 1686.6C1148.79 1667.06 1138 1627.68 1108.04 1628.86C1105.26 1628.97 1102.53 1629.23 1099.77 1629.5C1099.37 1630.18 1098.98 1630.86 1098.58 1631.54C1100.75 1652.1 1102.9 1672.57 1104.7 1693.16Z"/><path fill="#030303" d="M932.289 319.354L934.853 319.838C941.047 325.757 987.231 418.236 991.285 430.201C981.629 432.024 965.594 432.899 955.431 433.688C952.408 428.27 949.001 420.274 946.331 414.459C937.6 415.574 928.855 416.57 920.097 417.447L909.53 418.297C908.25 426.81 907.191 432.884 905.162 441.217L869.147 445.904C870.633 435.124 874.156 421.007 876.292 410.057C881.906 381.283 888.735 352.468 893.009 323.454C902.28 321.812 922.081 320.425 932.289 319.354ZM928.296 391.535L932.025 390.729C934.82 385.624 922.278 359.615 918.378 357.463L911.557 393.797C917.328 392.876 922.463 392.037 928.296 391.535Z"/><path fill="#030303" d="M856.503 1591.4C866.03 1591.88 882.473 1594.79 892.294 1596.28C890.757 1614.65 879.051 1667.24 886.832 1680.93C889.074 1684.87 892.721 1687.55 897.168 1688.47C901.519 1689.36 907.445 1689.09 911.031 1686.17C921.256 1677.87 925.106 1616.98 927.402 1601.46C937.781 1601.8 952.098 1603.83 962.537 1605.28C962.194 1613.04 961.264 1619.7 960.241 1627.42C958.524 1651.87 955.516 1689.12 938.544 1707.53C918.416 1729.38 855.497 1716.81 850.843 1686.45C846.516 1658.22 854.364 1620.73 856.503 1591.4Z"/><path fill="#030303" d="M1346.56 385.917C1352.36 387.966 1375.12 401.729 1381.95 405.731L1369.42 486.284C1367.75 496.981 1364.6 520.828 1361.5 529.74C1355.64 529.783 1335.81 516.533 1330.78 512.396C1331.82 504.427 1333.03 496.482 1334.42 488.566C1331.68 486.351 1327.59 483.893 1324.55 481.938C1317.99 478.238 1309.85 472.26 1303.51 467.867C1298.69 471.374 1289.21 480.983 1284.54 485.471C1274.58 479.93 1264.73 474.181 1255.02 468.228C1258.21 464.98 1262.04 461.829 1265.56 458.872C1293.38 435.472 1319.29 409.89 1346.56 385.917ZM1319.3 451.062L1329.09 456.301C1332.38 458.392 1335.74 460.595 1339.05 462.622C1340.52 456.477 1347.04 432.354 1345.83 427.66L1345.05 426.825C1336.41 434.848 1327.83 442.927 1319.3 451.062Z"/><path fill="#030303" d="M708.396 385.407C729.02 385.299 740.611 392.067 753.204 407.781C745.654 413.612 733.205 420.045 724.564 424.811C688.851 390.046 671.521 466.245 718.408 479.632C739.869 475.135 739.685 468.14 739.195 447.725C748.723 443.042 758.32 438.496 767.98 434.09C770.922 441.36 773.002 447.001 773.487 454.916C768.763 486.266 750.543 508.181 717.749 512.398C665.356 519.134 632.521 445.841 664.584 407.393C675.594 394.189 691.432 386.927 708.396 385.407Z"/><path fill="#030303" d="M739.614 1536.42C744.778 1538.27 763.344 1549.61 769.326 1553.03C760.175 1573.47 734.004 1630.08 719.998 1642.72C713.12 1648.92 704.57 1652.04 695.304 1651.48C678.721 1650.49 665.495 1639.91 654.899 1628.06C644.507 1612.62 642.831 1603.46 642.146 1584.86C656.589 1586.33 671.454 1588.3 685.904 1590.04C684.118 1594.6 679.174 1605.49 680.709 1609.67C684.646 1620.38 698.073 1619.44 702.949 1609.87C715.376 1585.47 727.752 1560.98 739.614 1536.42Z"/><path fill="#030303" d="M1156.51 319.091C1166.22 320.247 1179.05 323.115 1188.37 325.459C1184.97 352.201 1179.4 379.873 1173.08 406.061C1163.45 445.939 1126.75 447.023 1097.98 426.886C1091.59 421.358 1076.9 406.829 1079.01 397.941C1083.95 391.579 1111.07 386.673 1120.12 384.679C1119.68 389.914 1118.22 397.819 1120.33 402.71C1121.47 405.367 1122.67 406.584 1125.39 407.588C1128.54 408.748 1132.96 408.247 1135.73 406.375C1143.67 401.01 1153.32 332.689 1156.51 319.091Z"/><path fill="white" fill-opacity="0.011764706" d="M882.759 814.688C902.072 852.443 923.105 886.319 948.755 920.189C951.654 924.018 950.27 925.592 947.848 929.148C942.507 926.099 936.966 917.213 933.51 911.9C913.124 880.561 889.371 852.473 862.703 826.477C876.951 825.916 874.495 838.937 886.069 835.944L886.404 834.561L882.877 831.601C881.975 828.421 882.64 818.446 882.759 814.688Z"/></svg>