<?xml version="1.0" encoding="utf-8" ?><svg xmlns="http://www.w3.org/2000/svg" xmlns:xlink="http://www.w3.org/1999/xlink" width="2048" height="2048" viewBox="0 0 2048 2048"><path fill="#E0322A" d="M1024.08 498.881C1036.05 502.484 1056.87 518.682 1067.45 526.377C1122.25 566.248 1166.25 622.84 1191.04 685.935C1197.52 702.431 1201.79 721.268 1205.73 738.608C1276.26 728.514 1340.52 737.861 1402.89 774.38C1434.18 792.694 1462.5 812.846 1488.5 838.197C1455.7 944.735 1403.29 1016.8 1308.76 1075.08C1313.06 1083.38 1317.09 1091.65 1321.1 1100C1356.65 1174.14 1355.04 1257.78 1338.82 1336.6C1337.5 1343.03 1337.05 1348.68 1333.01 1354.17C1326.29 1357.92 1288.38 1361.72 1278.46 1362.76C1183.69 1372.7 1101.58 1350.99 1027.25 1291.02C1022.48 1287.11 1018.5 1283.27 1014.05 1279.01C1006.31 1287.08 986.554 1301.68 976.656 1308.18C898.845 1359.34 804.991 1373.1 714.635 1354.99C714.43 1354.5 713.747 1352.88 713.627 1352.49C692.18 1281.8 692.032 1200.94 710.821 1129.76C717.092 1106.01 727.816 1082.83 738.081 1061.65C654.381 1012.72 593.101 933.036 567.301 839.579C569.236 837.037 572.258 833.84 574.561 831.601C658.705 749.818 740.915 717.858 855.922 716.437C874.041 640.623 919.381 579.346 979.049 530.157C993.294 518.414 1008.94 509.421 1024.08 498.881ZM771.878 1077.02C733.806 1150.72 721.69 1240.25 745.843 1320.24C758.509 1322.6 773.35 1322.3 786.301 1322.42C924.95 1323.69 1067.75 1227.27 1055.66 1076.05C1051.25 1075.79 1040.37 1079.8 1034.44 1080.43C1010.53 1082.96 988.357 1074.52 967.728 1063.44C921.373 1092.04 850.249 1097.29 798.1 1084.34C789.08 1082.1 780.26 1079.01 771.878 1077.02ZM946.262 913.331C975.354 884.013 995.242 875.757 1037.04 877.341C1067.27 816.007 1102.23 777.274 1167.42 751.055C1153.48 668.612 1109.46 603.402 1041.71 555.257C1036.95 551.917 1032.1 548.704 1027.17 545.62C1011.93 557.615 996.571 569.791 982.693 583.263C903.212 660.423 849.374 797.839 927.947 894.001C933.476 900.768 939.529 907.613 946.262 913.331ZM1075.39 890.97C1087.94 905.285 1108.2 911.679 1114.89 935.69C1116.21 940.436 1119.98 951.72 1121.74 956.364C1190.65 965.826 1238.31 991.969 1283.06 1045.09C1286.51 1043.27 1289.95 1041.43 1293.37 1039.55C1355.39 1005.38 1395.27 958.765 1425.2 895.236C1431.64 881.569 1439.06 866.151 1443.24 851.7C1424.16 836.446 1405.52 821.923 1383.35 811.299C1273.64 758.736 1132.9 770.382 1075.39 890.97ZM612.733 850.25C633.6 908.064 665.168 955.399 714.136 993.441C773.033 1039.2 848.916 1068.15 922.296 1040.32C927.802 1038.23 933.838 1036.19 938.85 1033.02C926.299 1009.18 920.924 990.839 925.097 963.503C925.774 959.07 928.438 952.302 927.364 948.937C882.59 911.334 854.812 853.26 849.766 795.338C848.628 781.761 848.19 768.133 848.454 754.51C753.987 752.541 683.743 781.88 615.727 847.325C614.722 848.293 613.724 849.268 612.733 850.25ZM1301.79 1320.66C1304.74 1310.19 1305.65 1297.17 1307.19 1286.32C1322.49 1178.51 1274.09 1052.86 1168.56 1009.01C1154.29 1003.08 1137.83 999.45 1122.8 995.517C1117.75 1011.79 1111.94 1030 1100.91 1043.12C1098.63 1045.83 1094.18 1050.92 1093.44 1054.11C1102.29 1132.75 1085.55 1187.09 1038.98 1249.54C1117.88 1317.76 1199.36 1338.45 1301.79 1320.66Z"/><path fill="#020202" d="M946.262 913.331C975.354 884.013 995.242 875.757 1037.04 877.341C1053.28 880.297 1061 883.057 1075.39 890.97C1087.94 905.285 1108.2 911.679 1114.89 935.69C1116.21 940.436 1119.98 951.72 1121.74 956.364C1124.77 970.105 1123.9 981.562 1122.8 995.517C1117.75 1011.79 1111.94 1030 1100.91 1043.12C1098.63 1045.83 1094.18 1050.92 1093.44 1054.11L1092.29 1053.62C1077.24 1065.98 1074.13 1068.46 1055.66 1076.05C1051.25 1075.79 1040.37 1079.8 1034.44 1080.43C1010.53 1082.96 988.357 1074.52 967.728 1063.44C954.777 1053.9 948.074 1046.09 938.85 1033.02C926.299 1009.18 920.924 990.839 925.097 963.503C925.774 959.07 928.438 952.302 927.364 948.937C933.664 932.101 936.466 928.671 946.262 913.331Z"/><path fill="#020202" fill-opacity="0.88235295" d="M1093.46 1466.23C1105.42 1465.05 1116.1 1473.71 1117.4 1485.66C1118.7 1497.6 1110.14 1508.36 1098.2 1509.78C1086.11 1511.21 1075.17 1502.51 1073.85 1490.4C1072.54 1478.29 1081.35 1467.44 1093.46 1466.23ZM1100.57 1503.78C1109.37 1500.93 1114.16 1491.46 1111.24 1482.69C1108.33 1473.91 1098.81 1469.2 1090.06 1472.19C1081.42 1475.15 1076.78 1484.52 1079.66 1493.19C1082.54 1501.86 1091.87 1506.58 1100.57 1503.78Z"/><path fill="#020202" fill-opacity="0.88627452" d="M1025.09 1466.43C1034.95 1466.28 1049.11 1465.17 1056.09 1473.16C1065.25 1483.63 1063.12 1496.18 1053.56 1505.12C1044.01 1510.33 1033.26 1509.52 1022.59 1509.5C1022.33 1499.13 1021.43 1479.68 1022.91 1468.93C1023.64 1468.1 1024.36 1467.26 1025.09 1466.43ZM1027.74 1504.25C1037.43 1504.36 1044.6 1505.46 1052.45 1499.23C1058.27 1490.29 1059.02 1480.77 1048.9 1475.12C1041.37 1470.93 1036.09 1471.61 1027.75 1471.79L1027.74 1504.25Z"/><path fill="#020202" fill-opacity="0.86666667" d="M1089.95 1400.4C1097.7 1402.18 1109.99 1435.13 1109.33 1442.94L1108.05 1442.99C1104.41 1439.15 1103.96 1437.07 1102.05 1432.23L1090.75 1431.84L1080.21 1431.06L1078.06 1435.49C1076.1 1439.57 1075.62 1443.09 1070.69 1442.43L1070.1 1440.53C1074.31 1428.1 1083.51 1412.18 1089.95 1400.4ZM1092.97 1427.57L1097.68 1427.46C1100.88 1423.16 1094.26 1412.3 1091.19 1408.85C1088.72 1413.34 1083.46 1420.98 1084.08 1425.43C1086.68 1427.93 1088.58 1427.42 1092.97 1427.57Z"/><path fill="#020202" fill-opacity="0.89019608" d="M1003.72 1399.37C1009.58 1403.19 1026.6 1438.65 1024.71 1442.97L1022.24 1442.91C1015.58 1439.11 1021.25 1432.1 1010.25 1431.34L994.88 1430.69C993.351 1434.75 991.997 1440.51 988.551 1442.57L986.283 1441.82L985.816 1440.25C987.718 1429.51 997.947 1408.93 1003.72 1399.37ZM1007.25 1426.74L1010.81 1426.27C1012.68 1422.15 1007.34 1410.72 1004.48 1407.76C1002.07 1412.63 997.656 1419.64 998.159 1424.54C1001.02 1427.74 1003 1426.85 1007.25 1426.74Z"/><path fill="#020202" fill-opacity="0.90196079" d="M969.95 1467.31C971.852 1467.67 972.437 1467.93 974.277 1468.55C978.927 1475.74 973.687 1488.38 975.939 1495.61C976.943 1498.94 979.338 1501.67 982.506 1503.09C985.851 1504.63 989.714 1504.66 993.113 1503.24C1003.61 1498.86 997.081 1479.5 1001.47 1468.42C1003.77 1467.71 1002.58 1467.79 1005.1 1468.79L1005.73 1471.24C1005.74 1484.62 1008.91 1509.32 988.885 1509.36C983.71 1509.36 978.747 1507.3 975.093 1503.64C967.232 1495.62 969.726 1478.93 969.95 1467.31Z"/><path fill="#020202" fill-opacity="0.88627452" d="M958.506 1400.31C963.853 1401.14 971.462 1402.21 973.705 1407.77C970.172 1409.58 962.458 1407.05 958.125 1406.48C941.839 1404.32 938.671 1425.37 949.338 1434.18C954.138 1438.15 959.343 1438.1 965.33 1437.86C969.366 1436.23 969.276 1435.77 972.291 1436.99L972.613 1438.74C967.869 1446.16 954.994 1444.11 949.09 1440.1C928.136 1425.84 936.56 1405.35 958.506 1400.31Z"/><path fill="#020202" fill-opacity="0.91764706" d="M934.189 1466.49L952.553 1466.49C952.839 1483.5 958.515 1518.73 929.861 1506.38C928.502 1502.98 928.088 1503.53 928.706 1500.48C935.111 1499.68 946.71 1512.82 947.509 1489.8C947.716 1483.86 947.442 1477.59 947.383 1471.63C942.846 1471.61 936.621 1472.33 932.993 1470.44L932.554 1468.69L934.189 1466.49Z"/><path fill="#020202" fill-opacity="0.89019608" d="M1054.19 1406.33L1053.36 1403.69L1054.78 1402.79L1058.65 1404.06C1058.97 1413.4 1061.23 1431.21 1055.64 1439.12C1051.69 1444.72 1042.71 1444.13 1037.02 1441.17C1035.06 1438.37 1035.36 1439.83 1035.73 1436.71C1040.65 1436.13 1046.48 1439.95 1050.4 1436.72C1056.65 1431.57 1053.53 1414.08 1054.19 1406.33Z"/><path fill="#020202" fill-opacity="0.7647059" d="M1054.19 1406.33C1049.49 1405.01 1044.42 1405.43 1038.19 1403.72L1038.56 1402.73C1043.72 1400.27 1056.28 1397.31 1058.65 1404.06L1054.78 1402.79L1053.36 1403.69L1054.19 1406.33Z"/></svg>