<?xml version="1.0" encoding="utf-8" ?><svg xmlns="http://www.w3.org/2000/svg" xmlns:xlink="http://www.w3.org/1999/xlink" width="2048" height="2048" viewBox="0 0 2048 2048"><path fill="#040404" d="M997.081 612.221C1225.7 597.353 1422.99 770.841 1437.49 999.486C1451.98 1228.13 1278.16 1425.14 1049.5 1439.25C821.36 1453.33 624.911 1280.01 610.454 1051.9C595.996 823.789 768.992 627.054 997.081 612.221ZM1037.51 1416.81C1253.17 1409.46 1422.18 1228.9 1415.27 1013.21C1408.36 797.531 1228.15 628.155 1012.45 634.623C796.125 641.11 626.151 821.963 633.081 1038.27C640.01 1254.58 821.211 1424.18 1037.51 1416.81Z"/><path fill="#E0322A" d="M1097.75 929.806C1119.3 897.299 1142.4 859.307 1183.64 850.763C1206.67 845.901 1230.7 850.626 1250.17 863.85C1261.6 871.544 1276.65 885.719 1284.15 897.352C1280.64 904.782 1264.96 930.759 1263.92 935.068C1264.69 937.124 1265.16 938.318 1267.87 939.193C1280.54 943.283 1290.99 945.821 1303.55 950.864C1309.16 983.414 1307.86 1011.36 1286.47 1038.44C1270.28 1058.94 1253.32 1065.46 1228.34 1069.71C1196.46 1070.75 1179.33 1062.81 1149.51 1052.7L1104.93 1037.7C1118.06 1024.06 1144.02 998.145 1157.62 985.849L1146.02 982.226C1136.2 980.122 1084.32 965.352 1080.26 959.134C1080.1 955.327 1082.57 952.431 1084.68 949.102C1089.04 943.131 1093.59 936.007 1097.75 929.806Z"/><path fill="#E0322A" d="M837.18 849.366C903.277 846.19 923.303 890.82 957.455 937.201C962.77 944.419 968.399 952.062 972.475 960.001C967.266 962.059 961.605 963.333 956.264 965.05C934.843 971.935 912.429 977.912 891.477 986.053C908.077 1002.97 927.075 1019.87 944.193 1037.2C933.067 1042.03 904.464 1050.8 891.234 1055.39C847.24 1071.65 794.814 1080.06 761.807 1036.12C742.318 1010.18 741.097 980.204 746.062 948.985C758.255 946.57 774.919 941.652 787.565 938.52C782.94 928.183 770.269 907.305 764.224 896.656C786.335 872.277 802.675 853.486 837.18 849.366Z"/><path fill="#E0322A" d="M948.585 1046.26L950.946 1046.97C951.908 1048.93 945.016 1126.59 944.276 1135.07C961.97 1125.52 1001.35 1108.13 1020.5 1099.65C1020.37 1121.5 1021.17 1144.15 1019.63 1165.91C1014.84 1233.36 982.525 1278.69 911.852 1273.5C903.76 1272.14 893.838 1271.15 886.892 1267.01C884.434 1262.32 878.379 1230.06 876.824 1222.41C861.701 1225.82 848.578 1228.49 833.073 1230.46C822.949 1214.16 815.042 1204.45 808.901 1184.91C801.885 1162.6 803.904 1137.3 814.772 1116.54C831.395 1084.8 862.381 1075.05 893.903 1064.07C912.015 1057.78 930.246 1051.85 948.585 1046.26Z"/><path fill="#E0322A" d="M1097.96 1043.67C1142.48 1062.97 1193.22 1069.56 1226.5 1104.25C1258.37 1147.69 1244.26 1190.36 1216.01 1230.94C1201.72 1228.88 1187.31 1225.86 1173.16 1222.9C1169.99 1236.78 1166.7 1253.66 1163.04 1267.13C1106.33 1282.94 1051.72 1266.17 1035.07 1204.98C1027.52 1177.22 1027.87 1131.73 1032 1102.71C1050.89 1108.06 1076.92 1121.42 1095.27 1130.21C1098.79 1131.86 1098.83 1131.93 1102.62 1132.64L1103.55 1131.79C1101.61 1102.96 1099.02 1072.38 1097.96 1043.67Z"/><path fill="#E0322A" d="M987.416 735.018C997.284 741.138 1011.8 758.343 1024.37 767.373C1033.8 761.172 1048.89 745.421 1058 737.569C1094.91 745.542 1123.42 776.548 1131.14 813.114C1139.3 851.723 1114.23 889.549 1093.54 919.969C1089.09 926.468 1084.17 934.046 1079.49 940.275C1075.99 945.606 1074.06 947.899 1069.93 952.667C1056.77 937.192 1036.47 900.946 1025.45 882.947C1009.46 902.631 995.631 931.453 980.339 951.112C963.989 930.677 947.558 907.1 933.895 884.898C918.514 859.905 914.249 834.913 922.197 806.394C932.76 768.495 955.634 753.324 987.416 735.018Z"/><path fill="#040404" d="M983.546 966.922C996.483 949.763 1008.07 924.556 1021.96 907.58C1023.7 905.449 1023.84 905.889 1025.94 905.942C1032.53 910.605 1057.02 956.514 1063.99 964.233C1069.41 970.223 1123.56 987.216 1130.89 987.727C1134.28 989.612 1134.46 988.997 1135.98 991.835C1132.48 999.155 1094.87 1032.73 1087.09 1039.55C1088.67 1054.96 1089.78 1103.39 1093.18 1114.07L1091.48 1116.22C1085.98 1116.35 1034.27 1091.07 1024.24 1086.85C1003.66 1095.41 977.764 1109.01 957.758 1115.92C958.359 1091.02 961.561 1064.55 961.565 1039.77C953.842 1032.09 915.439 997.823 913.945 991.69C914.971 989.828 915.113 988.951 917.488 988.217C938.471 981.73 962.187 976.534 982.23 967.521L983.546 966.922Z"/><path fill="white" fill-opacity="0.011764706" d="M1146.02 982.226L1157.62 985.849C1144.02 998.145 1118.06 1024.06 1104.93 1037.7L1149.51 1052.7C1179.33 1062.81 1196.46 1070.75 1228.34 1069.71C1221.98 1079.09 1226.48 1092.81 1226.5 1104.25C1193.22 1069.56 1142.48 1062.97 1097.96 1043.67C1099.02 1072.38 1101.61 1102.96 1103.55 1131.79L1102.62 1132.64C1098.83 1131.93 1098.79 1131.86 1095.27 1130.21C1097.34 1123.31 1096.15 1121.29 1094.82 1114.08L1093.18 1114.07C1089.78 1103.39 1088.67 1054.96 1087.09 1039.55C1094.87 1032.73 1132.48 999.155 1135.98 991.835C1134.46 988.997 1134.28 989.612 1130.89 987.727C1136.14 987.239 1137.87 988.415 1143.5 987.712C1146.48 985.454 1145.33 986.98 1146.02 982.226Z"/><path fill="#040404" d="M1071.06 1326.44C1084.06 1325.99 1096.58 1331.21 1098.29 1345.53C1099.13 1352.56 1097.08 1359.63 1092.6 1365.11C1084.84 1374.46 1075.07 1375.87 1064 1377.09C1056.88 1378.03 1052.46 1378.15 1045.26 1378.27C1042.44 1363.21 1040.35 1348.04 1038.98 1332.79C1049.55 1329.95 1060.29 1328.26 1071.06 1326.44ZM1055.17 1341.09C1057.02 1352.16 1054.93 1369.15 1069.33 1364.56L1072.71 1363.48C1088.75 1356.99 1081.88 1336.48 1066.63 1338.32C1063.13 1339.14 1058.52 1340.08 1055.17 1341.09Z"/><path fill="#040404" d="M1165.92 1297.28C1200.31 1296.71 1201.12 1339.8 1157.91 1350.01C1120.02 1349.72 1120.77 1303.99 1165.92 1297.28ZM1160.24 1338.39C1176.45 1331.13 1181.01 1313.98 1162.72 1309.95C1156.65 1312.13 1151.73 1313.14 1148.64 1319.36C1143.73 1329.25 1151.17 1336.25 1160.24 1338.39Z"/><path fill="#040404" d="M950.114 1324.04C956.52 1324.26 959.964 1325.14 966.227 1326.47C964.646 1333.46 955.339 1359.19 964.042 1363.65C986.546 1375.19 984.737 1350.87 988.711 1337.16C989.628 1333.99 991.345 1333.09 994.048 1331.81C998.307 1331.79 998.986 1332.41 1003 1334.28C1004.74 1337.02 1004 1337.19 1003.72 1341.22C1001.24 1351.27 1000.09 1359.49 996.994 1369.98C982.535 1382.68 957.408 1382.85 947.227 1364.35C941.966 1354.79 946.565 1334.22 950.114 1324.04Z"/><path fill="#040404" d="M891.046 690.281C897.297 689.938 904.663 691.242 909.284 695.753C910.155 698.924 910.185 697.343 908.836 700.634C905.44 704.045 901.619 704.633 896.899 706.087L896.033 705.884L894.585 705.564C848.937 695.066 884.713 761.597 900.522 715.474C904.729 714.033 907.578 712.858 912.063 712.32C915.525 713.505 914.008 712.457 916.152 716.371C910.344 735.904 888.204 748.97 868.375 740.846C857.255 736.291 851.076 719.431 857.993 708.908C865.487 697.507 878.416 693.45 891.046 690.281Z"/><path fill="#040404" d="M1165.17 693.783C1171.57 693.218 1176.91 697.991 1182.52 701.652C1181.63 716.27 1182.36 736.997 1182.46 752.068C1163.07 745.068 1172.85 740.218 1160.12 734.394C1156.65 732.003 1154.03 729.779 1149.99 728.677C1146.15 728.809 1144.53 730.612 1141.4 732.954L1127.85 726.227C1135.96 717.248 1155.31 700.502 1165.17 693.783Z"/><path fill="#040404" d="M970.155 667.47L986.251 666.874C993.138 674.603 1007.62 698.594 1013.86 708.551C1008.61 709.451 1003.3 709.946 998.009 710.524C995.595 707.56 994.368 706.228 991.615 703.577C985.489 705.205 978.065 706.311 971.703 707.418C968.538 713.065 961.955 721.281 955.654 714.013C954.671 708.324 966.6 670.122 970.155 667.47Z"/><path fill="#040404" d="M898.571 1306.68C904.551 1306.82 908.94 1309.27 914.35 1311.69C900.705 1340.48 893.583 1365.92 859.568 1338.14C854.675 1332.16 848.917 1321.65 858.942 1317.38C863.081 1317.05 866.223 1319.07 870.137 1320.86L869.502 1324.36C867.874 1333.29 871.764 1340.27 881.855 1337.38C889.039 1335.32 894.059 1315.64 898.041 1307.71L898.571 1306.68Z"/><path fill="#040404" d="M1087.68 670.308L1099.86 672.633C1098.65 682.305 1097.76 700.798 1092.42 708.802C1083.95 721.473 1062.88 716.688 1052.14 709.06C1049 704.938 1045.89 698.918 1047.94 693.713C1052.35 690.995 1050.7 692.444 1054.41 691.95C1067.02 690.269 1064.06 709.217 1073.04 706.542C1087.22 702.319 1079.8 679.643 1087.68 670.308Z"/><path fill="white" fill-opacity="0.011764706" d="M1093.54 919.969C1093.4 924.548 1092.57 925.374 1094.54 928.544L1097.75 929.806C1093.59 936.007 1089.04 943.131 1084.68 949.102C1084.71 946.457 1084.71 944.689 1084.53 942.015C1082.1 939.784 1083.56 940.657 1079.49 940.275C1084.17 934.046 1089.09 926.468 1093.54 919.969Z"/></svg>