<?xml version="1.0" encoding="utf-8" ?><svg xmlns="http://www.w3.org/2000/svg" xmlns:xlink="http://www.w3.org/1999/xlink" width="2048" height="2048" viewBox="0 0 2048 2048"><path fill="#E0322A" d="M1012.48 412.432C1070.73 410.017 1127.66 430.221 1171.37 468.817C1225.65 516.522 1243.64 572.334 1247.94 642.415C1296.8 628.689 1352.95 629.908 1399.85 650.304C1455.22 674.602 1498.85 719.66 1521.35 775.79C1542.87 830.493 1543.64 896.49 1519.7 950.536C1499.7 996.089 1464.61 1033.36 1420.35 1056.08C1409.91 1061.42 1397.7 1066.01 1386.7 1070.29C1417.86 1124.42 1433.92 1167.44 1427.85 1231.64C1421.56 1287.34 1391.56 1340.78 1347.86 1375.42C1247.32 1455.13 1114.39 1449.08 1032.31 1347L1026.36 1340.28C1016.46 1349.63 1007.36 1360.27 997.497 1369.8C954.306 1411.51 892.863 1432.95 833.139 1430.21C795.772 1428.49 756.349 1412.63 724.591 1392.98C675.213 1362.47 640.051 1313.53 626.91 1257C611.44 1189.92 626.532 1128.65 662.185 1071.29C614.269 1052.39 578.721 1029.66 549.217 985.831C516.052 936.781 503.763 876.551 515.061 818.429C526.979 757.69 562.514 704.163 613.864 669.601C675.261 628.671 731.019 627.672 801.313 641.443C805.433 588.15 815.768 540.413 850.337 497.745C894.6 443.112 943.856 420.036 1012.48 412.432Z"/><path fill="#FEFEFE" d="M1020.43 438.749C1021.09 435.839 1020.96 434.838 1023.05 432.779L1024.41 433.988C1037.04 455.692 1047.65 475.202 1064.45 494.188C1086.01 518.56 1114.42 538.366 1136.28 561.688C1174.91 602.913 1190.4 669.763 1175.32 724.031C1173.74 729.745 1171.9 735.446 1170.21 741.158L1168.79 744.067L1171.82 747.216C1170.04 750.594 1168.36 753.431 1167.2 757.097C1208.54 721.861 1240.75 704.709 1297.58 708.223C1350.37 711.487 1385.87 746.322 1429.26 769.762C1447.12 779.405 1471.1 784.941 1491.53 787.05L1496.85 789.597C1497.46 791.518 1497.45 790.733 1497.35 791.898L1497.49 792.808C1499.61 795.236 1499.15 794.149 1499.97 797.053C1481.22 814.237 1457.81 846.234 1451.32 870.984C1424.57 972.865 1357.34 1042.36 1245.85 1025.75C1252.82 1030.19 1266.55 1035.37 1270.96 1039.42C1280.03 1048.64 1290.47 1056.36 1299.55 1066.04C1328.21 1096.59 1341.46 1137.73 1341.26 1179.23C1341.06 1197.46 1338.6 1215.6 1333.93 1233.23C1330.22 1247.66 1324.52 1261.84 1320.71 1276C1316.29 1292.36 1312.02 1322.9 1315.87 1339.61C1316.81 1344.81 1320.36 1359.94 1317.96 1363.68C1315.48 1363.17 1316.45 1363.84 1314.8 1361.95C1280.95 1342.04 1252.88 1338.2 1214.06 1339.63C1170.63 1341.23 1130.45 1334.44 1093.37 1310.25C1059.01 1287.85 1034.87 1252.8 1026.21 1212.71C1025.29 1220.61 1024.85 1226.42 1024.56 1234.36L1023.01 1235.27L1024.39 1235.39L1023.08 1235.46L1023.72 1236.5C1021.53 1232.34 1020.93 1225.82 1020.15 1221.09C994.838 1297.68 929.167 1339.21 849.472 1338.81C806.732 1338.59 764.32 1339.73 727.834 1365.7C734.855 1340.5 733.445 1294.82 725.082 1271.42C700.084 1202.28 695.893 1131.08 745.075 1071C751.123 1063.61 766.384 1049.54 770.229 1043.69L769.661 1042.38C771.794 1037.12 793.612 1031.84 802.203 1025.58C796.941 1026.46 791.051 1027.49 785.748 1028.06C756.616 1031.17 727.446 1025.75 701.015 1013.44C657.393 993.135 626.331 955.308 610.427 910.358C601.801 885.978 595.307 860.775 582.291 838.218C570.057 817.014 555.893 802.885 537.091 787.895C566.611 786.846 587.093 784.378 615.095 772.124C633.519 764.024 650.118 751.831 666.688 740.553C738.799 691.471 812.805 698.945 877.539 754.946L875.491 749.097L877.182 745.92L880.292 748.82C852.096 673.778 866.059 609.4 923.104 551.517C935.541 538.896 949.466 529.445 962.996 518.224C988.712 497.165 1008.5 469.775 1020.43 438.749Z"/><path fill="#FEFEFE" d="M537.091 787.895C566.611 786.846 587.093 784.378 615.095 772.124C633.519 764.024 650.118 751.831 666.688 740.553C738.799 691.471 812.805 698.945 877.539 754.946C898.948 786.254 920.682 817.34 942.735 848.198C957.72 869.117 973.597 890.097 987.735 911.478C980.157 920.383 975.788 926.195 972.004 937.52L591.071 806.554L590.226 808.633C631.07 822.38 673.195 839.531 713.977 854.375C799.119 885.293 884.45 915.691 969.965 945.565C970.118 952.372 970.122 957.572 971.198 964.309C932.491 976.826 895.09 990.536 857.155 1005.13C840.284 1011.63 818.284 1018.37 802.203 1025.58C796.941 1026.46 791.051 1027.49 785.748 1028.06C756.616 1031.17 727.446 1025.75 701.015 1013.44C657.393 993.135 626.331 955.308 610.427 910.358C601.801 885.978 595.307 860.775 582.291 838.218C570.057 817.014 555.893 802.885 537.091 787.895Z"/><path fill="#969190" d="M590.226 808.633C586.329 807.425 556.046 796.418 553.851 795.184C559.778 794.404 584.565 804.046 591.071 806.554L590.226 808.633Z"/><path fill="#FEFEFE" d="M1020.43 438.749C1021.09 435.839 1020.96 434.838 1023.05 432.779L1024.41 433.988C1037.04 455.692 1047.65 475.202 1064.45 494.188C1086.01 518.56 1114.42 538.366 1136.28 561.688C1174.91 602.913 1190.4 669.763 1175.32 724.031C1173.74 729.745 1171.9 735.446 1170.21 741.158L1168.79 744.067C1128.97 796.591 1089.82 852.08 1050.56 905.366C1041.65 901.583 1036.33 900.324 1026.96 898.482L1024.03 468.279L1021.93 468.91C1022.17 460.762 1023.31 445.658 1020.43 438.749Z"/><path fill="#969190" d="M1020.43 438.749C1021.09 435.839 1020.96 434.838 1023.05 432.779L1024.41 433.988C1023.69 445.41 1023.95 456.834 1024.03 468.279L1021.93 468.91C1022.17 460.762 1023.31 445.658 1020.43 438.749Z"/><path fill="#FEFEFE" d="M1167.2 757.097C1208.54 721.861 1240.75 704.709 1297.58 708.223C1350.37 711.487 1385.87 746.322 1429.26 769.762C1447.12 779.405 1471.1 784.941 1491.53 787.05L1496.85 789.597C1497.46 791.518 1497.45 790.733 1497.35 791.898L1497.49 792.808C1487.97 798.069 1472.5 803.33 1461.84 807.085L1459.13 805.149C1445.55 810.447 1426.84 816.208 1412.75 821.003L1322.23 851.937L1075.77 937.888C1069.96 924.961 1068.13 921.213 1058.44 911.023C1095.71 860.475 1130.54 808.165 1167.2 757.097Z"/><path fill="#969190" d="M1459.13 805.149C1471.89 800.585 1484.46 796.668 1497.35 791.898L1497.49 792.808C1487.97 798.069 1472.5 803.33 1461.84 807.085L1459.13 805.149Z"/><path fill="#FEFEFE" d="M1027.06 1007.21C1036.38 1005.31 1041.48 1004.36 1050.2 1000.15C1105 1076.97 1160.66 1153.16 1217.19 1228.71L1270.51 1299.58C1277.48 1308.81 1292.67 1327.81 1298 1337.03L1300.21 1335.11C1303.37 1339.31 1306.69 1344.61 1311 1347.23L1313.41 1347.05C1315.77 1344.08 1315.12 1343.94 1315.87 1339.61C1316.81 1344.81 1320.36 1359.94 1317.96 1363.68C1315.48 1363.17 1316.45 1363.84 1314.8 1361.95C1280.95 1342.04 1252.88 1338.2 1214.06 1339.63C1170.63 1341.23 1130.45 1334.44 1093.37 1310.25C1059.01 1287.85 1034.87 1252.8 1026.21 1212.71C1025.31 1200.63 1026.13 1187.81 1026.1 1175.61C1026.06 1158.47 1026.16 1141.41 1026.48 1124.27C1027.06 1085.25 1027.25 1046.23 1027.06 1007.21Z"/><path fill="#969190" d="M1300.21 1335.11C1303.37 1339.31 1306.69 1344.61 1311 1347.23L1313.41 1347.05C1315.77 1344.08 1315.12 1343.94 1315.87 1339.61C1316.81 1344.81 1320.36 1359.94 1317.96 1363.68C1315.48 1363.17 1316.45 1363.84 1314.8 1361.95C1315.42 1356.18 1302.54 1342.67 1298 1337.03L1300.21 1335.11Z"/><path fill="#FEFEFE" d="M1020.43 438.749C1023.31 445.658 1022.17 460.762 1021.93 468.91C1020.07 612.085 1019.07 755.271 1018.95 898.459C1009.44 900.438 1004.55 901.503 995.78 905.976C972.104 876.61 946.941 839.453 924.067 808.475L894.73 768.93C891.927 765.139 882.383 752.558 880.292 748.82C852.096 673.778 866.059 609.4 923.104 551.517C935.541 538.896 949.466 529.445 962.996 518.224C988.712 497.165 1008.5 469.775 1020.43 438.749Z"/><path fill="#FEFEFE" d="M1074.12 972.52C1108.81 986.261 1145.31 997.848 1180.77 1009.75C1209.34 1019.33 1241.88 1033 1270.96 1039.42C1280.03 1048.64 1290.47 1056.36 1299.55 1066.04C1328.21 1096.59 1341.46 1137.73 1341.26 1179.23C1341.06 1197.46 1338.6 1215.6 1333.93 1233.23C1330.22 1247.66 1324.52 1261.84 1320.71 1276C1316.29 1292.36 1312.02 1322.9 1315.87 1339.61C1315.12 1343.94 1315.77 1344.08 1313.41 1347.05L1311 1347.23C1306.69 1344.61 1303.37 1339.31 1300.21 1335.11C1220.23 1220.92 1138.73 1107.8 1055.73 995.781C1065.6 987.181 1067.37 984.102 1074.12 972.52Z"/><path fill="#FEFEFE" d="M1497.49 792.808C1499.61 795.236 1499.15 794.149 1499.97 797.053C1481.22 814.237 1457.81 846.234 1451.32 870.984C1424.57 972.865 1357.34 1042.36 1245.85 1025.75C1230.84 1018.72 1204.74 1010.66 1188.41 1004.6C1151.26 990.814 1113.98 976.876 1076.27 964.764C1077.14 958.525 1076.95 951.961 1076.98 945.641C1157.65 918.157 1237.97 889.611 1317.89 860.009L1406.52 827.141C1424.22 820.55 1443.97 812.649 1461.84 807.085C1472.5 803.33 1487.97 798.069 1497.49 792.808Z"/><path fill="#111" d="M1021.93 468.91L1024.03 468.279L1026.96 898.482C1036.33 900.324 1041.65 901.583 1050.56 905.366C1089.82 852.08 1128.97 796.591 1168.79 744.067L1171.82 747.216C1170.04 750.594 1168.36 753.431 1167.2 757.097C1130.54 808.165 1095.71 860.475 1058.44 911.023C1068.13 921.213 1069.96 924.961 1075.77 937.888L1322.23 851.937L1412.75 821.003C1426.84 816.208 1445.55 810.447 1459.13 805.149L1461.84 807.085C1443.97 812.649 1424.22 820.55 1406.52 827.141L1317.89 860.009C1237.97 889.611 1157.65 918.157 1076.98 945.641C1076.95 951.961 1077.14 958.525 1076.27 964.764C1113.98 976.876 1151.26 990.814 1188.41 1004.6C1204.74 1010.66 1230.84 1018.72 1245.85 1025.75C1252.82 1030.19 1266.55 1035.37 1270.96 1039.42C1241.88 1033 1209.34 1019.33 1180.77 1009.75C1145.31 997.848 1108.81 986.261 1074.12 972.52C1067.37 984.102 1065.6 987.181 1055.73 995.781C1138.73 1107.8 1220.23 1220.92 1300.21 1335.11L1298 1337.03C1292.67 1327.81 1277.48 1308.81 1270.51 1299.58L1217.19 1228.71C1160.66 1153.16 1105 1076.97 1050.2 1000.15C1041.48 1004.36 1036.38 1005.31 1027.06 1007.21C1027.25 1046.23 1027.06 1085.25 1026.48 1124.27C1026.16 1141.41 1026.06 1158.47 1026.1 1175.61C1026.13 1187.81 1025.31 1200.63 1026.21 1212.71C1025.29 1220.61 1024.85 1226.42 1024.56 1234.36L1023.01 1235.27L1024.39 1235.39L1023.08 1235.46L1023.72 1236.5C1021.53 1232.34 1020.93 1225.82 1020.15 1221.09L1019 1006.79C1008.13 1005.06 1004.42 1004.11 994.632 999.091C976.991 1026.23 955.028 1055.57 935.901 1082.19C893.112 1141.27 850.01 1200.13 806.596 1258.76C790.75 1280.31 770.947 1305.73 756.096 1327.54L752.306 1328.09C826.475 1215.18 909.602 1104 988.74 994.396C980.568 985.899 978.781 983.165 973.792 972.463C931.598 987.58 889.25 1002.26 846.755 1016.51C824.559 1023.96 790.507 1034.19 770.229 1043.69L769.661 1042.38C771.794 1037.12 793.612 1031.84 802.203 1025.58C818.284 1018.37 840.284 1011.63 857.155 1005.13C895.09 990.536 932.491 976.826 971.198 964.309C970.122 957.572 970.118 952.372 969.965 945.565C884.45 915.691 799.119 885.293 713.977 854.375C673.195 839.531 631.07 822.38 590.226 808.633L591.071 806.554L972.004 937.52C975.788 926.195 980.157 920.383 987.735 911.478C973.597 890.097 957.72 869.117 942.735 848.198C920.682 817.34 898.948 786.254 877.539 754.946L875.491 749.097L877.182 745.92L880.292 748.82C882.383 752.558 891.927 765.139 894.73 768.93L924.067 808.475C946.941 839.453 972.104 876.61 995.78 905.976C1004.55 901.503 1009.44 900.438 1018.95 898.459C1019.07 755.271 1020.07 612.085 1021.93 468.91Z"/><path fill="#6F6A6B" d="M752.306 1328.09L756.096 1327.54C751.306 1333.88 743.485 1344.95 738.183 1350.06C741.352 1343.12 747.582 1334.13 752.306 1328.09Z"/><path fill="#969190" d="M1491.53 787.05C1498.47 787.135 1505.42 787.265 1512.37 787.44C1509.24 790.035 1503.28 795.311 1499.97 797.053C1499.15 794.149 1499.61 795.236 1497.49 792.808L1497.35 791.898C1497.45 790.733 1497.46 791.518 1496.85 789.597L1491.53 787.05Z"/><path fill="#601913" d="M1170.21 741.158C1174.68 736.606 1180.23 730.566 1184.77 726.366C1181.8 731.318 1175.08 743.175 1171.82 747.216L1168.79 744.067L1170.21 741.158Z"/><path fill="#601913" d="M863.414 729.896C868.825 735.677 872.439 739.638 877.182 745.92L875.491 749.097C870.489 742.265 867.637 737.31 863.414 729.896Z"/><path fill="#111" d="M1213.68 1565.19C1245.29 1560.75 1261.47 1588.22 1249.41 1616.71C1245.71 1625.46 1237.49 1629.46 1228.84 1632.26C1211.61 1633.04 1193.5 1629.74 1188.75 1610.77C1183.24 1588.8 1191.53 1570.58 1213.68 1565.19ZM1224.55 1616.04C1240.14 1608.04 1237.02 1581.91 1219.18 1580.86C1203.41 1587.57 1203.23 1616.03 1224.55 1616.04Z"/><path fill="#111" d="M1057.43 1565.42C1070.69 1565.37 1094.93 1562.97 1105.09 1572.82C1119.39 1586.7 1117.93 1611.14 1104.62 1625.47C1092.86 1634.96 1070.74 1632.05 1055.63 1631.65C1055.54 1621.06 1054 1570.29 1057.43 1565.42ZM1088.79 1615.19C1098.1 1601.78 1098.13 1580.76 1076.91 1581.21C1074.45 1584.68 1073.18 1613.15 1077.64 1616.11C1079.47 1617.33 1086.07 1616.03 1088.79 1615.19Z"/><path fill="#111" d="M959.207 1565.91C965.454 1565.61 972.414 1565.63 978.726 1565.5L978.753 1582.62C978.751 1588.26 978.702 1593.9 978.607 1599.54C978.047 1622.5 971.256 1634.15 946.332 1632.74C935.025 1632.11 930.582 1630.23 922.893 1621.87C920.026 1609.74 917.401 1577.67 921.009 1566.31L939.944 1566.44C939.762 1574.84 937.827 1609.11 942.402 1613.43C963.745 1633.56 959.111 1575.69 959.207 1565.91Z"/><path fill="#111" d="M1205.95 1475.31C1211.77 1474.84 1217.5 1474.83 1223.33 1474.73C1228.22 1483.67 1243.84 1529.94 1247.23 1540.99C1240.78 1541.4 1233.47 1541.42 1226.94 1541.58C1225.65 1537.31 1225.29 1536.56 1223.15 1532.6C1216.97 1532.34 1210.4 1530.43 1205.25 1532.21C1201.65 1535.43 1202.71 1534.79 1201.03 1540.14C1194.38 1540.04 1187.73 1539.87 1181.09 1539.64C1188.23 1523.73 1199.21 1486.74 1205.95 1475.31Z"/><path fill="#111" d="M954.909 1475.4C960.868 1475.19 967.096 1474.41 972.561 1476.41C976.954 1480.62 993.133 1531.81 995.66 1541.02C989.61 1541.29 982.795 1541.2 976.677 1541.26C976.037 1538.82 975.416 1536.38 974.813 1533.94C972.365 1531.37 973.829 1532.09 970.25 1531.76L953.057 1531.99L949.498 1541.96C942.719 1542.05 935.939 1541.89 929.173 1541.48C933.813 1531.18 952.175 1478.19 954.909 1475.4Z"/><path fill="#111" d="M833.297 1474.39C845.01 1474.86 859.421 1480.42 862.094 1493.12C859.595 1502 852.298 1500 844.524 1499.82C827.61 1469.37 814.519 1510.76 826.343 1523.76C833.516 1531.64 841.417 1522.12 845.954 1516.31L859.874 1515.97C860.548 1516.54 860.918 1517.42 861.415 1518.26C861.262 1531.3 851.472 1540.35 839.151 1542.94C806.387 1549.84 792.779 1508.74 808.216 1485.73C813.639 1477.65 824.382 1475.42 833.297 1474.39Z"/><path fill="#111" d="M825.059 1565.15L843.462 1565.13C843.615 1580.29 845.219 1602.73 841.455 1617.29C837.097 1634.14 817.526 1635.61 803.36 1629.34C795.423 1624.27 795.652 1615.18 794.648 1606.61C799.793 1606.06 806.463 1606.21 811.742 1606.15C812.474 1610.07 812.614 1613.95 815.464 1616.49C818.948 1617.57 817.303 1617.6 820.559 1616.83C827.454 1609.46 823.984 1578.9 824.965 1566.24L825.059 1565.15Z"/><path fill="#111" d="M1095.36 1474.5L1109.33 1474.52C1110.21 1490.81 1111.96 1514.92 1106.17 1529.95C1099.96 1546.1 1079.78 1544.97 1066.77 1537.82C1064.4 1534.74 1060.12 1525.03 1060.66 1521.29C1061.79 1513.41 1074.34 1516.22 1079.42 1516.77C1080.1 1521.19 1079.89 1525.75 1083.94 1527.97C1098.55 1523.51 1087.47 1487.5 1091.86 1476.32C1092.47 1474.76 1093.65 1475.01 1095.36 1474.5Z"/></svg>