<?xml version="1.0" encoding="utf-8" ?><svg xmlns="http://www.w3.org/2000/svg" xmlns:xlink="http://www.w3.org/1999/xlink" width="1536" height="3072" viewBox="0 0 1536 3072"><path fill="#F81412" d="M382.236 570.447C394.928 569.6 408.446 570.091 421.187 570.633C461.084 572.328 501.012 571.589 540.894 573.772C554.95 574.542 568.003 586.414 582.378 585.891C595.145 585.427 606.17 575.451 618.742 574.143C658.278 573.917 697.912 574.866 737.447 575.149C840.674 575.831 943.898 577.843 1047.11 581.184L1145.33 584.206C1157.31 584.555 1169.4 584.384 1181.39 584.814C1199.16 585.45 1205.69 604.742 1215.05 631.331C1215.77 654.583 1216.51 677.993 1216.02 701.246C1216.67 707.67 1211.86 718.154 1211.83 722.995C1211.76 736.324 1219.05 734.458 1217.56 750.466C1212.53 764.915 1197.63 762.584 1194.64 779.249C1195.19 788.568 1198.28 791.899 1202.44 794.85C1221.73 808.539 1217.09 815.939 1216.59 853.084L1215.31 951.427C1213.99 1092.7 1212.04 1233.94 1209.43 1375.14L1198.16 2049.28C1196.7 2127.1 1196.36 2205.05 1193.92 2282.83C1192.56 2325.99 1190.36 2368.61 1190.08 2411.94C1189.93 2435.79 1183.7 2447.15 1175.34 2461.13C1168.36 2472.28 1164.03 2477.09 1154.98 2477.52C1133.21 2478.55 1111.42 2478.59 1089.64 2478.42L980.547 2476.95L885.948 2475.73C867.829 2475.68 849.425 2475.73 831.302 2475.47C820.799 2475.32 814.322 2456.26 801.898 2456.6C788.581 2456.96 775.571 2471.84 763.338 2471.97C737.717 2472.25 711.865 2471.65 686.239 2471.27L493.577 2466.11L398.568 2465.22C381.076 2465.02 359.784 2467.31 342.76 2460.83C330.507 2456.16 317.997 2422.25 319.486 2396.67C321.909 2355.06 322.774 2313.18 323.585 2270.99L335.55 1724.02L348.296 1009.5C349.578 952.97 352.022 894.525 353.522 837.707L356.281 727.499C357.555 674.978 353.914 597.548 382.236 570.447ZM604.364 831.353C599.956 826.318 595.408 814.113 593.465 812.647C574.184 798.842 550.216 795.501 529.885 795.035C513.349 794.657 501.009 801.133 486.719 816.335C480.584 822.861 463.48 823.551 459.435 836.909C459.183 853.522 473.865 850.735 479.422 854.362C485.726 858.477 518.997 873.513 518.279 888.966C512.007 900.413 445.817 913.976 434.289 915.457C426.885 916.408 399.596 913.693 397.732 931.084C400.398 941.671 438.185 998.635 443.98 1004.74C471.367 995.574 559.325 959.481 580.984 978.732C582.182 982.768 582.006 980.635 581.404 985.374C569.218 999.263 483.757 1013.54 465.713 1011.89C458.354 1011.21 430.525 1006.01 426.208 1008.71L426.052 1011.82C428.051 1020.27 434.465 1029.85 438.391 1034.88C451.527 1051.73 459.299 1094.93 469.386 1112.77C467.237 1120.84 465.705 1119.8 461.217 1120.69C451.843 1116.84 406.913 1105.43 400.439 1119.89C398.102 1131.08 401.631 1147.7 401.833 1162.5C402.087 1181.13 397.563 1215.1 399.008 1230.88C403.314 1243.16 416.985 1240.39 423.758 1238.37C476.688 1222.65 530.527 1226.39 583.823 1230.09C589.712 1230.5 610.407 1228.81 614.741 1233.07L615.008 1235.53C612.252 1243.66 604.233 1247.72 599.592 1250.82C543.251 1288.54 484.57 1308.98 425.458 1318.24C415.239 1319.84 384.526 1314.01 378.518 1327.03C376.592 1338.05 380.423 1342.64 384.614 1348.82C398.037 1368.64 404.751 1388.38 408.965 1421.09C412.691 1450.01 413.878 1470.82 432.377 1464.42C473.674 1450.13 513.945 1427.54 554.276 1405.05C599.464 1380.96 643.554 1354.28 687.392 1321.54C693.458 1317.02 712.557 1306.91 718.378 1312.82C721.129 1318.83 720.963 1322.14 721.548 1329.88C727.005 1402.06 685.564 1397.89 661.702 1397.92C650.197 1397.99 638.692 1397.89 627.189 1397.6C620.571 1397.41 603.842 1393.88 599.925 1402.89C604.999 1425.4 617.296 1446.88 617.872 1473.07C618.354 1494.95 627.715 1504.96 637.721 1505.69C659.853 1507.3 682.63 1506.18 704.79 1506.64C724.839 1507.32 744.889 1507.74 764.941 1507.9C788.292 1508.13 822.773 1511.62 841.845 1480.2C863.062 1445.25 852.976 1386.5 852.649 1340.86C852.608 1335.17 853.559 1330.84 855.787 1327.17C861.388 1323.27 875.984 1337.78 881.722 1342.77C939.665 1393.23 1001.74 1417.49 1063.29 1443.21C1081.5 1450.82 1105.29 1467.41 1123.26 1466.73C1143.55 1465.97 1148.24 1401.97 1160.29 1377.46C1168.34 1361.08 1177.89 1352.63 1187.11 1338.18C1173.26 1321.51 1153.17 1325.56 1136.9 1322.47C1109.29 1316.81 1081.75 1309.99 1054.28 1302C1038.29 1297.31 931.741 1257.38 927.958 1239.77L929.33 1236.69C931.912 1234.9 935.23 1233.4 937.992 1233.26C994.355 1230.25 1050.82 1232.79 1107.2 1233.65C1118.5 1233.82 1154.23 1248.1 1161.38 1233.47C1164.46 1213.76 1155.56 1190.25 1155.87 1174.57C1156.53 1141.24 1160.96 1123.24 1137.8 1119.85C1119.65 1117.2 1099.5 1126.57 1080.47 1128.25C1042.89 1131.57 1005.41 1129.51 967.725 1129.4C948.34 1129.36 928.955 1129.07 909.572 1128.54C898.331 1128.28 873.277 1129.98 863.592 1121.49C860.327 1110.58 862.28 1087.78 861.833 1074.95C859.867 1018.54 863.767 1027.29 886.141 1038.24C895.634 1042.77 905.197 1046.69 914.815 1050C939.721 1058.75 965.055 1061.57 989.901 1071.27C1016.14 1081.51 1041.9 1097.02 1068.45 1103.55C1094.12 1109.86 1099.22 1085.45 1113.04 1049.73C1118.36 1035.97 1123.96 1025.62 1130.19 1013.86C1136.42 1002.13 1154.49 986.021 1159.11 973.906L1158.39 971.018C1144.85 960.854 1117.02 968.257 1101.42 966.197C1085.92 964.152 1071.05 961.507 1055.55 958.103C1077.16 942.428 1097.7 918.586 1117.63 896.047C1124.74 888.001 1134.98 882.767 1140.06 870.379C1138.75 848.292 1078.05 821.61 1065.89 822.7C1058.02 823.406 1025.18 839.281 1021.01 829.556C1021.1 829.143 1021.16 828.706 1021.27 828.318C1022.4 824.468 1078.26 755.828 1082.94 751.275C1088.78 745.596 1095.56 744.788 1101.51 739.635C1104.51 737.039 1106.68 733.591 1107.85 727.374C1107.41 721.066 1105.64 716.455 1102.46 714.437C1082.59 701.85 1064.11 678.318 1043.73 670.02C1032.71 665.535 1019.85 677.971 1008.73 678.748C988.626 680.097 968.594 679.923 948.524 680.004L672.652 681.045L580.584 681.084C548.152 681.014 516.832 681.805 484.645 673.731C475.209 671.363 457.168 665.056 449.929 675.878C441.525 688.441 454.261 719.291 455.542 733.301C456.9 815.434 458.491 805.751 493.575 791.367C522.877 779.353 562.773 782.251 592.975 782.123C618.229 782.017 649.935 779.983 674.46 786.1C654.87 805.819 626.082 829.45 604.364 831.353ZM505.981 1124.82C502.443 1122.48 485.715 1119.91 486.262 1120.69C488.334 1119.83 490.4 1118.8 492.46 1117.82C501.55 1115.56 510.741 1114.82 519.828 1112.42C550.562 1104.31 581.577 1096.84 612.148 1086.69C640.398 1077.31 668.181 1062.87 696.273 1052.2C700.509 1050.59 708.275 1048.2 711.841 1052.99C716.747 1066.14 710.241 1096.3 709.569 1112.59C709.122 1123.43 695.432 1125.05 691.591 1125.13C678.978 1125.42 666.393 1125.04 653.796 1124.91L591.154 1124.98L540.877 1125.54C530.466 1125.72 516.177 1126.4 505.981 1124.82ZM642.255 1860.47C642.49 1892.59 641.665 1924.58 642.195 1956.76C642.486 1974.37 644.432 1992.47 644.348 2009.86C643.867 2026.9 641.817 2043.15 641.583 2060.28C641.202 2088.11 643.338 2117.09 643.127 2144.61C642.865 2178.77 637.071 2204.54 651.363 2232.16C654.399 2238.07 658.09 2242.46 662.135 2244.99C677.096 2254.44 722.221 2253.21 738.803 2252.7C750.142 2252.35 766.903 2247.12 778.9 2246.93C813.992 2246.35 849.185 2246.37 884.282 2246.58C909.656 2246.74 935.619 2243.7 960.749 2244.49C995.571 2246.37 1030.02 2261.95 1064.95 2254.89C1080.18 2251.81 1094.82 2240.41 1105.99 2218.98C1109.02 2213.17 1111.84 2200.69 1111.92 2192.22C1112.06 2177.95 1108.85 2163.4 1108.46 2149.26C1107.93 2130.01 1112.5 2111.48 1112.93 2092.39C1112.92 2072.13 1110.77 2049.85 1110.31 2028.99C1109.7 2001.18 1110.98 1976.35 1111.67 1948.69C1112.26 1924.64 1111.19 1898.59 1112.47 1874.52C1112.95 1865.57 1113.53 1859.05 1116.34 1852.07C1120.65 1841.38 1131.93 1832.4 1133.68 1820.44C1130.63 1801.2 1070.99 1810.83 1059.76 1811.48L976.842 1814.63C972.873 1814.73 927.296 1821.26 936.42 1792.92C942.561 1773.85 976.14 1778.38 988.121 1778.7C1006.18 1779.09 1024.23 1779.81 1042.28 1780.88C1064.63 1782.14 1087.06 1781.85 1109.45 1782.69C1119.83 1783.08 1127.8 1790.22 1137.67 1789.59C1141.45 1789.35 1143.82 1785.07 1146.34 1779.95C1146.34 1763.81 1141.45 1726.96 1142.87 1718.18C1147.82 1687.72 1157.86 1669.14 1132.86 1665.49C1114.48 1664.63 1094.1 1671.15 1075.73 1666.53C1087.06 1655.9 1118.95 1637.01 1123.19 1613.23C1124.02 1608.57 1123.83 1603.78 1122.72 1599.4C1118.33 1582.1 1103.4 1571.44 1094.59 1566.54C1076.97 1556.75 997.209 1529.73 982.313 1544.37C980.734 1545.92 979.587 1548.08 979.224 1551.67C978.496 1558.88 982.541 1571.51 983.316 1579.07C985.335 1598.74 962.542 1642.3 955.458 1655.05C949.411 1665.93 941.427 1671.07 933.289 1670.09C930.414 1669.75 928.534 1668.63 926.321 1664.97C922.256 1650.28 933.344 1628.38 936.181 1612.18C932.274 1592.57 926.8 1580.94 916.648 1572.82C894.103 1554.79 868.015 1548.62 843.873 1552.52C833.262 1554.74 781.037 1571.91 776.166 1585.86C777.197 1604.06 814.435 1611.66 814.878 1643.63C815.047 1655.82 815.765 1662.76 809.379 1667.72C804.801 1666.9 794.606 1667.7 789.566 1667.61C773.939 1667.15 758.31 1666.98 742.682 1667.09C732.086 1667.11 718.784 1667.87 708.59 1665.81C709.3 1664.58 728.12 1662 731.265 1661.09L732.487 1659.27C744.665 1655.71 762.109 1652.15 760.35 1615.48C759.967 1607.5 755.348 1598.86 752.036 1595.26C724.446 1570.39 680.501 1569.59 650.876 1582.05C644.237 1584.84 640.14 1590.84 636.106 1599.49C642.641 1604.22 650.997 1609.63 656.453 1617.71C667.125 1633.52 670.705 1650.96 684.001 1661.01L683.44 1663.95C679.978 1664.74 677.691 1664.37 674.628 1664.93C660.725 1663.61 631.377 1655.41 621.429 1673.07C619.665 1686.44 630.35 1704.25 629.827 1711.4C622.895 1806.3 625.571 1785.67 669.004 1781.85C711.566 1778.1 765.937 1775.12 809.387 1779.36C828.745 1784.35 826.581 1815.05 807.67 1814.81C759.478 1814.22 711.302 1816.21 663.158 1810.19C655.368 1809.22 633.135 1804.91 627.392 1814.92C626.317 1823.43 639.101 1850.42 642.255 1860.47ZM512.425 1804.59C536.681 1797.27 578.24 1771.56 594.428 1732.46C605.553 1705.59 592.629 1673.13 579.855 1658.89C550.618 1626.28 517.631 1610.86 484.739 1601.12C476.9 1598.78 463.984 1591.52 456.553 1594.94C440.546 1598.79 430.161 1613.96 416.48 1621.78C399.12 1631.71 385.418 1637.79 368.057 1649.85L369.057 1650.8C378.239 1659.42 386.962 1660.68 396.087 1667.19C417.124 1682.17 436.405 1702.37 454.18 1729.76C467.729 1750.64 474.111 1783.43 487.421 1802.64C491.101 1807.96 507.735 1807.28 512.425 1804.59ZM574.884 1872.47C545.409 1889.5 515.689 1884.9 485.474 1885C465.485 1885.07 445.239 1886.25 425.269 1884.09C413.943 1882.86 395.045 1874.15 384.67 1879.06C382.709 1879.99 381.424 1881.05 380.47 1884.78C377.069 1898.06 382.022 1951.62 377.834 1977.25C376.259 1986.88 370.695 2000.6 372.688 2010.8C373.703 2015.99 376.449 2018.83 378.976 2020.34C397.791 2031.53 458.692 1996.91 468.941 2031.64C472.953 2045.24 469.037 2072.36 469.066 2087.84C469.122 2116.86 473.265 2144.55 468.896 2173.37C466.59 2188.58 462.215 2197.9 455.214 2205.2C437.977 2223.17 401.154 2229.53 381.402 2231.48C373.676 2232.25 365.314 2230.46 357.753 2233.5C354.571 2234.78 351.986 2235.96 350.861 2242.52C351.99 2250.35 360.466 2256.3 365.506 2268.4C371.667 2281.09 375.741 2295.78 379.861 2310.96C385.19 2330.6 377.928 2370.94 388.238 2382.43C396.433 2391.56 417.659 2372.59 428.384 2369.73C445.839 2365.08 463.811 2353.39 481.11 2346.71C499.78 2338.35 518.296 2321.49 537.49 2318.52C546.572 2317.89 579.235 2340.6 590.853 2346.1C609.11 2354.73 626.169 2361.48 644.738 2367.97C716.364 2392.97 787.835 2397.55 860.437 2397.12L1027.27 2397.72L1076.88 2398.14C1105.4 2398.36 1130.92 2402.36 1152.77 2358.36C1176.64 2310.28 1155.56 2290.57 1145.15 2245.24C1142.57 2234 1141.21 2214.21 1137.72 2206.23C1135.31 2203.7 1133.02 2203.68 1130.45 2205.44C1121.7 2211.44 1117.03 2246.79 1093.24 2258.56C1069.7 2270.21 1043.41 2270.83 1019.21 2274.03C953.041 2282.39 886.723 2285.06 820.44 2282.03C789.086 2280.86 757.519 2280.65 726.282 2274.59C709.713 2271.38 693.074 2266.89 676.816 2259.64C664.622 2254.19 652.627 2247.04 640.478 2241.21C629.543 2235.96 617.954 2232.86 607.562 2223.97C604.188 2221.09 598.997 2215.95 597.574 2208.51C595.296 2196.61 599.63 2181.33 600.073 2168.98C600.378 2160.48 600.025 2151.53 599.902 2143.01C599.332 2103.54 593.229 1969.44 601.247 1940.53C603.848 1931.15 613.714 1915.91 612.494 1905.66C611.175 1894.59 604.97 1885.63 600.204 1880.92C593.088 1873.88 582.678 1868.91 574.884 1872.47Z"/><path fill="white" fill-opacity="0.0078431377" d="M674.46 786.1C649.935 779.983 618.229 782.017 592.975 782.123C562.773 782.251 522.877 779.353 493.575 791.367C458.491 805.751 456.9 815.434 455.542 733.301C454.261 719.291 441.525 688.441 449.929 675.878C457.168 665.056 475.209 671.363 484.645 673.731C516.832 681.805 548.152 681.014 580.584 681.084L672.652 681.045L948.524 680.004C968.594 679.923 988.626 680.097 1008.73 678.748C1019.85 677.971 1032.71 665.535 1043.73 670.02C1064.11 678.318 1082.59 701.85 1102.46 714.437C1105.64 716.455 1107.41 721.066 1107.85 727.374C1106.68 733.591 1104.51 737.039 1101.51 739.635C1095.56 744.788 1088.78 745.596 1082.94 751.275C1078.26 755.828 1022.4 824.468 1021.27 828.318C1021.16 828.706 1021.1 829.143 1021.01 829.556C1025.18 839.281 1058.02 823.406 1065.89 822.7C1078.05 821.61 1138.75 848.292 1140.06 870.379C1134.98 882.767 1124.74 888.001 1117.63 896.047C1097.7 918.586 1077.16 942.428 1055.55 958.103C1071.05 961.507 1085.92 964.152 1101.42 966.197C1117.02 968.257 1144.85 960.854 1158.39 971.018L1159.11 973.906C1154.49 986.021 1136.42 1002.13 1130.19 1013.86C1123.96 1025.62 1118.36 1035.97 1113.04 1049.73C1099.22 1085.45 1094.12 1109.86 1068.45 1103.55C1041.9 1097.02 1016.14 1081.51 989.901 1071.27C965.055 1061.57 939.721 1058.75 914.815 1050C905.197 1046.69 895.634 1042.77 886.141 1038.24C863.767 1027.29 859.867 1018.54 861.833 1074.95C862.28 1087.78 860.327 1110.58 863.592 1121.49C873.277 1129.98 898.331 1128.28 909.572 1128.54C928.955 1129.07 948.34 1129.36 967.725 1129.4C1005.41 1129.51 1042.89 1131.57 1080.47 1128.25C1099.5 1126.57 1119.65 1117.2 1137.8 1119.85C1160.96 1123.24 1156.53 1141.24 1155.87 1174.57C1155.56 1190.25 1164.46 1213.76 1161.38 1233.47C1154.23 1248.1 1118.5 1233.82 1107.2 1233.65C1050.82 1232.79 994.355 1230.25 937.992 1233.26C935.23 1233.4 931.912 1234.9 929.33 1236.69L927.958 1239.77C931.741 1257.38 1038.29 1297.31 1054.28 1302C1081.75 1309.99 1109.29 1316.81 1136.9 1322.47C1153.17 1325.56 1173.26 1321.51 1187.11 1338.18C1177.89 1352.63 1168.34 1361.08 1160.29 1377.46C1148.24 1401.97 1143.55 1465.97 1123.26 1466.73C1105.29 1467.41 1081.5 1450.82 1063.29 1443.21C1001.74 1417.49 939.665 1393.23 881.722 1342.77C875.984 1337.78 861.388 1323.27 855.787 1327.17C853.559 1330.84 852.608 1335.17 852.649 1340.86C852.976 1386.5 863.062 1445.25 841.845 1480.2C822.773 1511.62 788.292 1508.13 764.941 1507.9C744.889 1507.74 724.839 1507.32 704.79 1506.64C682.63 1506.18 659.853 1507.3 637.721 1505.69C627.715 1504.96 618.354 1494.95 617.872 1473.07C617.296 1446.88 604.999 1425.4 599.925 1402.89C603.842 1393.88 620.571 1397.41 627.189 1397.6C638.692 1397.89 650.197 1397.99 661.702 1397.92C685.564 1397.89 727.005 1402.06 721.548 1329.88C720.963 1322.14 721.129 1318.83 718.378 1312.82C712.557 1306.91 693.458 1317.02 687.392 1321.54C643.554 1354.28 599.464 1380.96 554.276 1405.05C513.945 1427.54 473.674 1450.13 432.377 1464.42C413.878 1470.82 412.691 1450.01 408.965 1421.09C404.751 1388.38 398.037 1368.64 384.614 1348.82C380.423 1342.64 376.592 1338.05 378.518 1327.03C384.526 1314.01 415.239 1319.84 425.458 1318.24C484.57 1308.98 543.251 1288.54 599.592 1250.82C604.233 1247.72 612.252 1243.66 615.008 1235.53L614.741 1233.07C610.407 1228.81 589.712 1230.5 583.823 1230.09C530.527 1226.39 476.688 1222.65 423.758 1238.37C416.985 1240.39 403.314 1243.16 399.008 1230.88C397.563 1215.1 402.087 1181.13 401.833 1162.5C401.631 1147.7 398.102 1131.08 400.439 1119.89C406.913 1105.43 451.843 1116.84 461.217 1120.69C479.893 1125.21 488.029 1123.64 505.981 1124.82C516.177 1126.4 530.466 1125.72 540.877 1125.54L591.154 1124.98L653.796 1124.91C666.393 1125.04 678.978 1125.42 691.591 1125.13C695.432 1125.05 709.122 1123.43 709.569 1112.59C710.241 1096.3 716.747 1066.14 711.841 1052.99C708.275 1048.2 700.509 1050.59 696.273 1052.2C668.181 1062.87 640.398 1077.31 612.148 1086.69C581.577 1096.84 550.562 1104.31 519.828 1112.42C510.741 1114.82 501.55 1115.56 492.46 1117.82C484.499 1119.06 477.005 1117.72 469.386 1112.77C459.299 1094.93 451.527 1051.73 438.391 1034.88C434.465 1029.85 428.051 1020.27 426.052 1011.82L426.208 1008.71C430.525 1006.01 458.354 1011.21 465.713 1011.89C483.757 1013.54 569.218 999.263 581.404 985.374C582.006 980.635 582.182 982.768 580.984 978.732C559.325 959.481 471.367 995.574 443.98 1004.74C438.185 998.635 400.398 941.671 397.732 931.084C399.596 913.693 426.885 916.408 434.289 915.457C445.817 913.976 512.007 900.413 518.279 888.966C518.997 873.513 485.726 858.477 479.422 854.362C473.865 850.735 459.183 853.522 459.435 836.909C463.48 823.551 480.584 822.861 486.719 816.335C501.009 801.133 513.349 794.657 529.885 795.035C550.216 795.501 574.184 798.842 593.465 812.647C595.408 814.113 599.956 826.318 604.364 831.353C626.082 829.45 654.87 805.819 674.46 786.1Z"/><path fill="#F81412" d="M847.647 786.652C853.067 785.962 869.481 780.991 870.948 793.241C868.824 803.677 858.805 812.465 853.926 817.345C843.318 827.955 834.313 834.487 822.392 833.983C816.135 833.583 801.576 828.462 794.985 826.39C814.146 803.879 826.169 793.116 847.647 786.652Z"/><path fill="#F81412" d="M714.49 885.488C720.577 884.655 734.552 884.658 738.489 894.468C739.263 920.087 705.818 927.356 696.952 928.442C691.89 927.606 675.487 924.621 671.814 920.152L672.39 917.494C682.022 904.655 703.07 890.458 714.49 885.488Z"/><path fill="#F81412" d="M956.935 898.957C961.672 899.046 968.061 897.512 971.321 903.525L970.917 906.876C963.359 922.564 944.608 934.348 933.469 936.55C929.88 936.979 918.781 937.517 917.441 929.712C920.583 916.725 949.801 900.686 956.935 898.957Z"/><path fill="#F81412" d="M941.4 1910.22C949.759 1910.14 976.285 1904.57 979.173 1924.01C978.746 1935.24 971.724 1943.18 966.72 1943.77C948.946 1945.86 930.89 1944.68 913.051 1944.58C878.637 1943.89 844.219 1944.38 809.813 1946.05C801.853 1946.38 782.497 1949.32 775.866 1940.19C767.121 1928.15 774.945 1912.63 783.686 1911.67C802.252 1909.63 820.991 1910.71 839.626 1910.9C873.551 1911.53 907.478 1911.31 941.4 1910.22Z"/><path fill="#F81412" d="M785.73 2129.23C835.553 2125.4 888.153 2136.75 938.381 2129.54C946.368 2128.4 975.512 2125.34 980.318 2137.84C980.504 2150.93 969.234 2156.78 964.123 2159.48C934.606 2166.63 899.342 2159.78 868.634 2160.95C841.472 2160.32 814.179 2163.54 787.053 2163.11C772.689 2162.88 760.17 2131.4 785.73 2129.23Z"/><path fill="#F81412" d="M937.459 2021.19C946.118 2020.19 974.64 2015.02 977.875 2035.64C975.919 2054.09 958.575 2053.11 951.121 2052.98C937.658 2052.73 924.176 2052.03 910.706 2051.69C878.843 2050.72 846.972 2051.21 815.12 2053.17C806.977 2054.2 776.21 2062.24 773.447 2038.75C771.878 2025.4 781.095 2022.65 786.082 2022.33C806.302 2021.07 826.659 2022.14 846.915 2022.6C877.098 2023.42 907.286 2022.95 937.459 2021.19Z"/><path fill="#F81412" d="M492.46 1117.82C501.55 1115.56 510.741 1114.82 519.828 1112.42C550.562 1104.31 581.577 1096.84 612.148 1086.69C640.398 1077.31 668.181 1062.87 696.273 1052.2C700.509 1050.59 708.275 1048.2 711.841 1052.99C716.747 1066.14 710.241 1096.3 709.569 1112.59C709.122 1123.43 695.432 1125.05 691.591 1125.13C678.978 1125.42 666.393 1125.04 653.796 1124.91L591.154 1124.98L540.877 1125.54C530.466 1125.72 516.177 1126.4 505.981 1124.82C502.443 1122.48 485.715 1119.91 486.262 1120.69C488.334 1119.83 490.4 1118.8 492.46 1117.82Z"/><path fill="#F81412" fill-opacity="0.79607844" d="M684.001 1661.01C698.4 1667.9 718.392 1657.17 732.487 1659.27L731.265 1661.09C728.12 1662 709.3 1664.58 708.59 1665.81C718.784 1667.87 732.086 1667.11 742.682 1667.09C758.31 1666.98 773.939 1667.15 789.566 1667.61C794.606 1667.7 804.801 1666.9 809.379 1667.72C801.048 1675.3 684.4 1669.86 674.628 1664.93C677.691 1664.37 679.978 1664.74 683.44 1663.95L684.001 1661.01Z"/><path fill="#F81412" fill-opacity="0.90980393" d="M469.386 1112.77C477.005 1117.72 484.499 1119.06 492.46 1117.82C490.4 1118.8 488.334 1119.83 486.262 1120.69C485.715 1119.91 502.443 1122.48 505.981 1124.82C488.029 1123.64 479.893 1125.21 461.217 1120.69C465.705 1119.8 467.237 1120.84 469.386 1112.77Z"/></svg>