<?xml version="1.0" encoding="utf-8" ?><svg xmlns="http://www.w3.org/2000/svg" xmlns:xlink="http://www.w3.org/1999/xlink" width="1536" height="3072" viewBox="0 0 1536 3072"><path fill="#E0322A" d="M300.851 203.118C318.414 200.918 341.358 202.112 359.314 202.126L459.899 202.08L775.887 201.917L1078.75 202.039L1182.22 202.18C1200.96 202.316 1222.08 202.053 1240.68 203.817C1253.06 204.991 1288.97 221.527 1297.08 239.946C1297.58 252.547 1268.85 280.516 1263.54 286.863C1259.38 291.829 1245.8 288.626 1242.11 300.717L1243.13 303.475C1256.98 315.255 1277.53 295.378 1291.51 293.828C1304.34 292.406 1309.87 305.292 1319.06 319.243C1325.6 329.187 1331.53 325.871 1331.63 347.025C1331.85 394.604 1331.77 442.108 1331.74 489.657L1331.61 762.809L1331.84 1576.04C1316.1 1599.09 1275.33 1606.5 1306.04 1650.67C1314.22 1662.44 1325.1 1673.83 1331.22 1689.44L1331.9 1691.2L1331.53 2406.18L1331.52 2591.63C1331.55 2617.63 1331.8 2644.7 1331.47 2670.65C1329.28 2689.34 1311.17 2692.59 1311.34 2714.24C1311.49 2732.73 1325.11 2746.64 1331.54 2760.69C1334.11 2781.01 1333.21 2784.4 1330.28 2803.11C1322.75 2851.07 1305.38 2811.71 1298.11 2817.89L1297.62 2820.52C1298.35 2824.87 1298.44 2824.73 1299.88 2828.42C1301.2 2831.78 1303.03 2837.91 1304.24 2841.67C1258.78 2874.42 1206.54 2868.63 1158.88 2868.77L1012.18 2868.83L502.183 2868.89L376.322 2868.83C355.215 2868.78 334.065 2868.97 312.986 2868.2C304.465 2867.88 306.243 2856.31 305.553 2844.71C304.885 2833.48 295.289 2830.24 291.37 2824.18C283.747 2812.4 292.081 2805.83 291.18 2792.12C284.149 2774.75 258.753 2770.28 249.847 2787.42C245.746 2795.31 238.031 2804.48 232.676 2808.05C231.86 2807.61 231.056 2807.13 230.244 2806.65C228.805 2805.82 227.359 2805.01 225.997 2803.73C217.276 2795.56 208.969 2772.79 206.178 2754.52C202.333 2729.36 204.248 2596.75 204.249 2564.14L204.212 2174.83L204.091 1126.3L203.992 690.12C204.011 615.738 204.019 541.265 204.136 466.885C204.156 454.072 204.736 449.627 207.664 438.287C214.394 428.578 219.55 425.113 225.064 412.046C225.276 390.877 225.972 376.641 221.385 357.24L220.523 355.913C215.05 347.334 212.256 347.036 205.513 344.229C203.868 328.455 203.979 318.403 203.965 302.912C203.93 261.049 220.092 260.334 234.47 242.591C237.415 238.957 239.473 237.371 240.672 231.398C240.163 226.664 239.747 224.756 240.369 220.044C247.043 207.686 275.771 224.002 286.763 218.91C296.011 214.627 293.609 206.449 300.851 203.118ZM295.087 1019.43C306.194 1021.17 323.836 1020.29 335.238 1020.35L417.885 1020.06C433.358 1020.01 456.551 1017.4 470.886 1025.39C454.662 1039.26 425.225 1053.3 407.404 1062.93C385.956 1074.9 364.415 1086.18 342.787 1096.78C305.802 1114.43 268.122 1129.76 230.74 1147.58C245.023 1170.7 261.987 1193.64 277.259 1214.92C288.187 1230.15 307.425 1260.43 318.172 1272.04C326.652 1266.62 352.701 1259.4 363.055 1255.38C390.705 1244.57 418.112 1231.41 445.203 1215.94C467.187 1203.4 489.106 1190.39 510.954 1176.93C518.709 1172.1 557.91 1145.74 562.309 1146.32C576.265 1148.16 619.428 1170.84 632.614 1182.01C620.188 1193.33 603.401 1200.47 590.015 1208.26C489.728 1266.64 386.998 1304.49 283.671 1333.64C278.163 1335.19 271.593 1337.87 266.247 1340.6C261.297 1343.13 249.711 1345.29 250.957 1358.32C254.411 1367.59 283.43 1400.93 290.369 1408.99C302.006 1422.49 340.322 1471.23 351.366 1474.97C360.619 1478.11 404.616 1457.09 416.147 1451.78C470.945 1427.47 525.417 1400.31 579.507 1370.32C605.912 1355.61 631.595 1338.55 657.661 1321.8C664.453 1317.43 689.385 1300.2 694.481 1302.33C698.019 1311.28 694.276 1334.7 692.921 1345.87C686.951 1395.06 679.666 1450.25 664.035 1490.77C727.399 1490.82 790.762 1491.57 854.122 1493.02C850.052 1465.63 841.922 1311.74 848.024 1291.24C851.847 1287.16 858.482 1291.7 862.624 1294.55C962.106 1363.01 1065.29 1404.74 1167.05 1456.9C1179.99 1463.54 1187.85 1467.05 1199.47 1451.1C1215 1429.8 1230.54 1408.91 1246.55 1389.01C1258.54 1374.18 1270.58 1359.52 1282.67 1345.03C1286.34 1340.63 1300.73 1326.1 1301.29 1318.95C1297.02 1309.88 1246.25 1294.28 1236.79 1290.79C1181.61 1270.07 1126.56 1248 1071.65 1224.6C1034.46 1208.65 998.443 1193.85 961.751 1173.22C975.736 1154.71 1015.62 1133.5 1029.22 1122.08C1059.46 1096.72 1225.75 959.834 1242.57 926.391C1229.26 917.431 1214.38 910.03 1200.68 902.544L1141.81 869.859C1118.4 856.785 1089.44 836.79 1066.35 827.349C1053.41 838.145 1025.01 878.668 1012.86 897.216C975.547 901.999 937.011 900.752 899.589 900.819C890.9 900.834 881.3 900.48 872.698 898.86C872.906 898.531 873.11 898.194 873.32 897.874C873.665 897.349 874.019 896.848 874.364 896.324C886.411 878.07 918.526 862.758 934.178 850.48C943.896 842.856 952.76 832.162 962.676 825.373C978.869 814.288 1047.66 819.787 1069.07 819.628L1247 819.117C1252.26 798.085 1278.38 717.311 1277.49 699.955C1272.36 691.623 1212.16 698.23 1202.36 698.608C1166.26 699.446 1130.16 699.862 1094.05 699.856C1083.17 699.947 1025.02 703.951 1019.33 695.283C1019.67 693.817 1020.02 692.351 1020.36 690.885C1072.32 634.58 1129.04 593.844 1184.06 551.525C1192.69 544.885 1203.75 538.542 1204.94 528.803C1201.46 518.164 1186.38 504.229 1180.41 498.073C1133.65 449.855 1086.92 401.036 1038.69 358.873C1027.54 349.129 1001.25 370.07 988.844 376.266C965.02 388.165 942.583 390.513 918.136 392.383C784.901 402.658 651.571 407.25 518.238 406.156C500.343 406.015 372.285 400.563 365.573 409.898C364.106 411.939 363.445 414.519 363.534 418.087C363.805 428.946 399.536 546.893 404.046 551.533C411.483 559.183 453.969 552.622 466.04 552.205C501.328 551.074 536.621 550.797 571.913 551.372C581.074 551.404 628.997 548.429 634.097 556.294C634.071 557.251 634.045 558.208 634.019 559.165C599.698 597.299 511.997 659.718 478.646 675.777C439.38 694.685 433.451 696.075 411.009 705.43C388.218 715.365 365.38 724.875 342.5 733.958C335.18 736.819 282.904 755.77 280.379 760.852C282.608 768.508 347.817 863.797 357.47 879.824C359.8 888.472 364.234 893.96 368.228 899.513C341.648 899.535 315.384 899.256 288.833 896.271C285.966 895.949 280.136 897.823 277.612 900.523C275.404 910.404 284.97 967.257 288.278 975.319C289.488 986.256 293.338 1006.53 295.087 1019.43ZM679.791 1750.82C643.188 1757.5 603.337 1746.34 566.478 1747.79C563.31 1747.91 557.964 1748.84 555.319 1751.86C552.006 1760.95 553.808 1777.77 554.532 1789.13C555.145 1805.2 556.026 1865.58 560.34 1874.06C563.144 1879.57 609.814 1877.02 615.561 1876.94L697.511 1876.53L1102.33 1875.54L1211.45 1875.53C1229.24 1875.75 1255.19 1879.77 1271.88 1874.89C1282.58 1847.43 1304.06 1775.15 1311.07 1743.37C1292.3 1741.98 1272.48 1747.47 1253.58 1748.06C1216.69 1749.2 1179.73 1750.09 1142.84 1749.27C1140.36 1749.22 1136.16 1748.29 1134.42 1744.48C1135.06 1732.69 1160.6 1716.69 1166.67 1712.16L1227.61 1667.07C1236.81 1660.36 1253.43 1649.58 1261.79 1641.56C1247.36 1619.24 1233.19 1596.24 1219.31 1572.58C1212.5 1561.17 1192.2 1521.64 1183.17 1525.93C1163.12 1530.18 1145.98 1546.72 1123.74 1548.21C1080.57 1551.12 1037.65 1550.44 994.461 1550.28C975.159 1550.73 934.781 1545.42 918.595 1555.52C920.652 1568.93 924.959 1589.18 927.666 1603.13C932.442 1627.74 936.659 1659.27 943.198 1681.44C950.884 1683.89 955.321 1683.82 962.057 1684.74C970.71 1685.93 1005.9 1679.68 1011.12 1686.47C1012.39 1702.05 962.186 1746.68 953.612 1751.18C951.527 1752.28 938.469 1751.62 935.37 1751.56L896.788 1750.74C883.182 1750.38 869.576 1750.16 855.969 1750.08C845.345 1750.13 833.923 1751.11 823.451 1748.74L822.956 1746.58C824.587 1739.11 832.247 1739.2 836.383 1732.7C837.028 1730.02 837.829 1727.49 836.959 1724.4C824.051 1678.51 810.273 1635.72 801.481 1585.54C798.999 1571.38 795.102 1544.22 791.43 1532.56C780.424 1534.2 767.345 1538.8 756.237 1541.93C739.551 1546.51 722.85 1550.87 706.135 1555.02C686.269 1559.89 666.391 1564.56 646.5 1569.01C636.281 1571.35 607.525 1574.87 597.875 1586.72C597.045 1587.73 597.074 1590.99 596.922 1593.21C600.858 1612.66 666.812 1729.82 679.791 1750.82ZM406.971 887.914C435.57 880.086 466.803 864.327 495.093 851.078C509.965 844.114 535.195 824.678 549.159 820.587C563.893 816.27 593.11 819.289 609.121 819.044C642.12 818.541 675.384 819.832 708.414 819.258C710.1 819.228 711.135 819.926 712.676 821.047L713.416 823.231C710.177 830.978 649.158 863.273 638.59 869.523C630.798 874.131 596.846 895.406 589.857 896.704C587.484 896.207 578.812 897.582 575.83 897.785C567.263 898.258 558.693 898.474 550.122 898.435L442.874 898.376C426.283 898.387 401.598 900.45 385.921 897.573C393.552 895.466 399.877 894.032 406.971 887.914ZM435.936 1853.58C439.814 1856.4 446.507 1860.77 450.169 1855.84C465 1835.85 538.774 1743.13 544.762 1720.77C544.357 1717.48 543.472 1714.37 541.96 1712.89C521.245 1692.52 495.497 1678.57 473.713 1662.45L417.789 1620.53C403.974 1609.94 395.031 1598.97 380.016 1597.79C375.392 1599.1 371.161 1601.75 366.813 1606.11C348.766 1624.21 333.076 1640.45 315.123 1659.96C302.22 1673.97 281.809 1689.47 270.294 1708.85C268.945 1711.12 269.364 1713.35 269.557 1716.4C272.118 1724.23 301.512 1747.28 307.367 1751.93L357.167 1790.88L410.987 1833.17C419 1839.62 427.992 1847.93 435.936 1853.58ZM452.417 1878.37C438.358 1886.12 423.532 1902.79 409.815 1908.42C394.347 1914.76 372.529 1914.13 356.347 1914.6C332.094 1915.59 307.835 1916.01 283.577 1915.86C272.505 1915.84 261.095 1915.04 250.037 1916.2C245.139 1916.72 242.065 1917.58 239.189 1925.66C238.811 1943.45 259.852 2047.77 264.956 2062.49L266.018 2063.24C285.58 2076.81 343.382 2058.67 366.394 2065.26C369.524 2066.16 381.755 2065.27 382.358 2074.63C384.104 2101.75 384.367 2136.48 380.171 2162.64C378.217 2174.22 352.089 2171.3 346.515 2171.33L282.75 2171.48C272.285 2171.43 245.946 2168.19 237.818 2176.17C232.653 2191.91 260.291 2303.56 265.372 2308.4C300.493 2341.9 422.536 2238.72 368.873 2404.23C363.317 2421.34 355.931 2435.78 347.247 2446.49C317.676 2482.5 271.879 2491.67 239.07 2514.47C236.831 2516.03 235.861 2517.66 235.287 2522.01C236.663 2529.73 239.072 2536.43 241.611 2542.8C250.7 2565.64 301.212 2680.86 310.162 2689.84C314.078 2693.76 318.956 2690.46 322.823 2687.65C340.102 2675.07 357.415 2659.98 374.079 2644.42C387.967 2631.46 426.703 2588.22 438.259 2584.98C445.957 2582.83 514.991 2627.88 529.446 2635.13C543.907 2642.4 558.791 2647.32 573.447 2652.79C654.118 2682.9 737.503 2689.99 819.375 2696.79C918.948 2704.7 1018.57 2709.93 1118.21 2712.5L1192.13 2713.44C1202.47 2713.48 1221.77 2714.46 1231.63 2712.09C1237.61 2702.25 1294.78 2562.66 1297.62 2550.09C1296.96 2544.35 1293.76 2543.76 1291.13 2543.84C1279.91 2544.16 1268.69 2544.7 1257.47 2545.15C1235.79 2546.26 1214.11 2547.08 1192.43 2547.62C1049.12 2551.85 905.783 2550.83 762.49 2544.59C716.3 2542.9 670.141 2538.73 624.063 2532.07C616.939 2531.14 582.21 2528.42 577.832 2525.62C557.799 2512.81 522.383 2483.36 504.569 2463.09L505.031 2461.22C515.507 2419.57 531.578 2398.78 539.43 2342.01C541.18 2329.11 542.282 2315.9 542.72 2302.57C544.051 2264.78 541.004 2084.86 546.64 2066.38C553.041 2045.39 569.754 2045.18 578.795 2030.35C580.033 2028.32 580.599 2028.11 580.595 2024.75C571.063 1999.4 478.276 1894.02 457.093 1878.33C456.595 1877.96 453.305 1878.21 452.417 1878.37ZM620.701 1893.04C619.35 1905.65 623.378 1912.86 624 1929.12C624.44 1940.62 624.803 1947.62 624.806 1959.72L624.907 2303.27C624.934 2344.04 627.13 2476.57 622.418 2508.69C622.276 2509.66 622.144 2510.63 622.007 2511.6C624.433 2514.71 626.391 2517.33 628.968 2519.88C715.451 2523.12 806.135 2518.82 893.102 2518.73L1080.67 2519.51C1111.41 2519.72 1142.16 2519.71 1172.91 2519.91C1176.13 2519.94 1186.49 2521.06 1188.38 2517.59L1188.23 2511.25C1186.14 2504.2 1182.89 2492.75 1182.62 2484.69C1181.92 2463.76 1182.12 2441.45 1182.09 2420.47L1181.98 2300.18L1181.94 2034C1181.93 2000.08 1181.16 1955.52 1182.9 1921.64C1183.16 1916.55 1187.63 1903.26 1186.89 1896.95C1184.91 1895.08 1182.5 1894.86 1180.34 1895.14C1135.57 1900.74 1090.59 1900.09 1045.71 1900.86C945.008 1902.73 844.303 1902.14 743.612 1899.1C718.857 1898.53 694.108 1897.12 669.377 1894.87C658.222 1893.9 631.32 1890.57 620.701 1893.04Z"/><path fill="#E0322A" d="M933.485 543.512C937.031 542.765 942.659 542.985 945.16 548.465C945.139 549.372 945.2 550.301 945.097 551.185C944.688 554.675 942.616 558.326 941.311 560.488C930.572 578.292 808.991 693.847 796.239 699.949C781.304 707.095 761.757 701.336 746.437 699.101C738.601 698.847 735.371 698.25 727.968 693.668C747.72 675.624 768.365 666.5 788.971 653.555C805.905 642.916 822.99 630.437 839.668 618.219C857.916 604.801 876.001 590.512 893.907 575.365C904.323 566.488 923.47 548.539 933.485 543.512Z"/><path fill="#E0322A" d="M851.292 1020.2C866.596 1020.1 910.649 1016.95 923.388 1023.79L924.15 1027.76C922.439 1034.61 907.129 1046.97 902.898 1050.87C885.742 1063.7 870.473 1077.93 852.518 1090.31C851.203 1073.06 850.049 1037.81 851.292 1020.2Z"/><path fill="#E0322A" d="M687.494 1020.4C689.136 1019.82 691.116 1019.8 692.75 1019.43C704.209 1016.83 698.767 1070.02 694.972 1076.78C688.775 1078.52 680.637 1071.6 674.472 1067.45C668.003 1063.6 661.235 1058.42 654.853 1053.8C665.523 1039.57 675.192 1028.27 687.494 1020.4Z"/><path fill="#E0322A" d="M805.396 2006.24C849.682 2005.45 894.43 2006.63 938.766 2006.79L982.72 2006.84C993.146 2006.75 1026.44 2000.92 1030.09 2023.43C1028.54 2045.15 1002.54 2040.26 994.312 2040.2L860.822 2040.14C837.373 2040.13 813.849 2040.5 790.415 2039.59C783.874 2039.34 771.006 2037.88 768.8 2023.28C770.839 2001.05 796.405 2006.36 805.396 2006.24Z"/><path fill="#E0322A" d="M790.62 2255.25C807.131 2253.5 827.953 2254.63 844.71 2254.78L935.383 2255.65C948.62 2256 961.859 2256 975.096 2255.66C986.58 2255.33 1023.99 2251.13 1030.89 2269.61C1031.58 2275.3 1031.71 2272.63 1030.56 2277.92C1024.1 2288 1019.09 2288.76 1011.38 2289.19C956.878 2289.38 902.381 2288.93 847.886 2287.84L804.578 2287.74C795.264 2287.72 775.249 2291.84 769.694 2275.18C768.691 2254.32 783.784 2255.84 790.62 2255.25Z"/><path fill="#E0322A" d="M782.666 2131.99C789.181 2129.78 806.398 2131.67 813.939 2132.05C826.814 2132.61 839.693 2132.82 852.572 2132.68L960.599 2133.02C974.505 2132.95 1023.66 2126.13 1031.04 2145.84C1031.56 2159.3 1022.98 2163.55 1017.89 2165.7C977.245 2168.4 928.988 2165.68 887.799 2165.22L823.398 2164.26C810.386 2164.12 797.311 2164.26 784.317 2163.4C778.781 2163.03 770.915 2160.65 768.704 2149.03C768.845 2132.85 776.613 2133.42 782.666 2131.99Z"/><path fill="#E0322A" d="M779.313 2382.46C791.515 2379.25 811.776 2381.43 824.518 2381.45L901.445 2381.59L973.983 2381.55C987.668 2381.55 1001.51 2381.04 1015.17 2382.3C1021.14 2382.84 1030.43 2383.15 1030.25 2398.59C1027.72 2407.66 1026.36 2407.84 1021.34 2411.41C1009.66 2416.47 993.982 2414.61 981.637 2414.53L934.341 2414.45L848.195 2414.43C834.892 2414.47 774.784 2420.78 769.191 2399.61C769.231 2387.6 774.604 2385.66 779.313 2382.46Z"/><path fill="#E0322A" d="M406.971 887.914C435.57 880.086 466.803 864.327 495.093 851.078C509.965 844.114 535.195 824.678 549.159 820.587C563.893 816.27 593.11 819.289 609.121 819.044C642.12 818.541 675.384 819.832 708.414 819.258C710.1 819.228 711.135 819.926 712.676 821.047L713.416 823.231C710.177 830.978 649.158 863.273 638.59 869.523C630.798 874.131 596.846 895.406 589.857 896.704C587.484 896.207 578.812 897.582 575.83 897.785C567.263 898.258 558.693 898.474 550.122 898.435L442.874 898.376C426.283 898.387 401.598 900.45 385.921 897.573C393.552 895.466 399.877 894.032 406.971 887.914Z"/><path fill="#E0322A" fill-opacity="0.6156863" d="M357.47 879.824C360.238 882.203 365.523 891.725 368.135 896.098C374.243 896.483 377.502 896.602 383.524 895.317L379.698 898.427L379.947 899.571C427.838 902.346 477.642 898.598 525.679 899.946C542.909 900.429 567.958 897.673 584.455 899.856C576.963 904.029 530.184 902.899 520.061 902.958L334.966 902.967C324.967 902.866 283.658 896.268 278.436 903.444C277.72 919.136 287.731 959.671 288.278 975.319C284.97 967.257 275.404 910.404 277.612 900.523C280.136 897.823 285.966 895.949 288.833 896.271C315.384 899.256 341.648 899.535 368.228 899.513C364.234 893.96 359.8 888.472 357.47 879.824Z"/><path fill="#E0322A" fill-opacity="0.80392158" d="M383.524 895.317C385.849 893.29 403.887 888.428 406.971 887.914C399.877 894.032 393.552 895.466 385.921 897.573C401.598 900.45 426.283 898.387 442.874 898.376L550.122 898.435C558.693 898.474 567.263 898.258 575.83 897.785C578.812 897.582 587.484 896.207 589.857 896.704C587.94 898.23 586.51 899.745 584.455 899.856C567.958 897.673 542.909 900.429 525.679 899.946C477.642 898.598 427.838 902.346 379.947 899.571L379.698 898.427L383.524 895.317Z"/></svg>