<?xml version="1.0" encoding="utf-8" ?><svg xmlns="http://www.w3.org/2000/svg" xmlns:xlink="http://www.w3.org/1999/xlink" width="2048" height="2048" viewBox="0 0 2048 2048"><path fill="#E0322A" d="M1080.64 468.134C1117.03 537.861 1149.79 610.188 1185.12 680.534C1193.71 697.643 1202.69 715.974 1210.32 733.463C1196.2 754.494 1180.2 775.672 1165.66 796.603L1075.02 928.349C1081.13 904.881 1092.76 872.993 1100.61 849.804L1141.83 727.142C1116.4 685.452 1092.14 637.719 1067.4 594.52C1052.67 613.852 1041.53 635.27 1024.84 655.324C1011.53 636.345 995.499 611.608 982.211 593.697C956.672 636.72 935.533 681.719 908.402 726.197C911.527 739.608 918.44 757.445 922.539 771.218C935.438 814.556 951.257 856.965 965.589 899.798L965.567 900.661C965.503 904.579 965.634 904.965 966.587 908.741L966.018 910.577L963.508 910.902L882.681 795.29C868.977 775.709 851.115 751.605 839.08 731.643C843.353 724.562 849.549 710.7 853.278 702.79C861.148 685.884 869.148 669.038 877.279 652.256C907.248 590.665 937.558 529.241 968.208 467.986C980.161 482.8 1013.98 543.505 1025.14 551.68C1029.11 549.992 1073.94 477.7 1080.64 468.134Z"/><path fill="#E0322A" d="M1121.91 1051.85C1130.12 1051.94 1174.68 1067.34 1185.49 1071.37C1232.9 1089.07 1284.83 1101.13 1331.65 1119.23L1380.45 1402.91C1373.82 1401.32 1366.1 1398.4 1359.62 1396.12C1334.85 1387.42 1310.51 1378.09 1285.4 1370.35C1283.43 1402.9 1283.83 1441.66 1283.48 1474.65C1262.73 1463.85 1239.99 1453.6 1218.79 1442.92L1035.13 1348.82C1034.69 1338.82 1034.63 1327.89 1034.4 1317.82C1033.54 1269.46 1031.41 1221.45 1031.89 1173.09C1032.09 1153.02 1031.19 1132.23 1032.36 1112.24C1037.88 1133.37 1047.35 1160.43 1054.13 1181.65C1067.34 1222.67 1080.25 1263.79 1092.87 1305C1137.11 1324.7 1181.3 1348.25 1224.95 1367.28C1227.59 1347.27 1228.7 1322.26 1230.54 1301.59C1251.31 1305.96 1274.82 1313.43 1297.37 1318.33C1290.06 1268.17 1282.18 1218.1 1273.73 1168.13C1262.27 1156.07 1234.19 1137.33 1219.85 1126.38C1198.43 1110.02 1176.54 1093.49 1155.23 1076.92C1145.41 1069.29 1130.21 1060.62 1121.91 1051.85Z"/><path fill="#E0322A" d="M923.62 1053.26L924.233 1053.49C922.466 1058.94 793.553 1151.17 774.591 1168.05C773.885 1181.74 768.34 1210.78 766.045 1225.27L751.968 1318.6C774.286 1313.55 796.187 1307.28 818.372 1301.65C821.004 1318.83 821.739 1346.69 823.629 1365.52C864.645 1348.97 916.192 1324.09 956.942 1304.5C968.403 1269.86 978.186 1235.65 988.688 1200.87C997.95 1170.2 1007.63 1141.08 1016.32 1110C1018.54 1125.16 1017.44 1166.32 1017.26 1183.03L1015.68 1317.34L1015.6 1346.66C951.892 1381.91 885.074 1413.33 820.65 1447.42C803.296 1456.61 784.114 1466.61 766.088 1474.11C764.807 1439.22 765 1404.19 762.779 1369.07C732.741 1377.78 697.507 1395.27 669.13 1403.17C670.913 1389.22 674.712 1371.68 677.165 1357.51C682.816 1323.15 688.751 1288.84 694.967 1254.58C702.394 1211.61 708.663 1162.8 718.637 1119.15C719.173 1116.8 858.467 1075.34 873.978 1069.24C882.702 1065.8 915.268 1055.06 923.62 1053.26Z"/><path fill="#E0322A" d="M811.219 739.661C814.867 738.865 815.104 738.673 818.96 738.873C827.365 743.007 864.884 799.569 873.045 811.028C899.407 848.044 929.612 885.905 952.743 924.871C939.63 916.624 913.464 895.103 900.481 885.014L796.266 803.591C779.785 808.907 756.043 813.656 738.983 817.559C708.579 824.422 678.277 831.724 648.085 839.464C659.612 856.492 677.045 875.627 689.715 893.443C684.447 896.616 673.484 901.518 667.595 904.497L626.165 925.904C633.1 934.717 658.018 957.897 667.34 966.918C692.263 990.722 716.748 1014.98 740.783 1039.68C785.435 1038.97 830.092 1038.63 874.75 1038.67C885.086 1038.68 921.475 1037.89 928.319 1039.36C925.062 1043.52 871.702 1056.7 862.426 1059.4C813.4 1073.85 764.232 1087.81 714.928 1101.27L590.58 985.326C580.344 975.866 509.892 912.906 506.554 906.439C511.196 902.466 595.228 878.437 607.451 875.046C588.296 846.097 560.1 817.346 541.631 789.452C580.194 783.456 617.541 775.649 655.721 768.253L741.244 752.566C763.446 748.389 789.096 742.903 811.219 739.661Z"/><path fill="#E0322A" d="M1226.86 738.543C1241.68 739.054 1263.78 744.112 1278.43 746.871C1306.81 752.218 1335.21 757.814 1363.59 763.216L1455.67 780.613C1462.39 781.864 1503.97 788.216 1506.56 791.43C1502.28 799.305 1489.1 814.92 1483.09 822.362L1442.09 873.031C1452.16 877.422 1472.69 883.176 1483.82 886.684C1503.78 893.087 1523.67 899.691 1543.5 906.494C1536.95 914.486 1504.63 943.148 1495.09 952.136C1442.01 1002.16 1387.99 1050.97 1334.76 1100.96C1303.56 1092.72 1272.42 1084.25 1241.34 1075.56C1197.91 1062.99 1156.13 1049.76 1112.2 1038.44C1125.6 1037.58 1141.14 1038.32 1154.75 1038.67C1205.71 1039.83 1257.17 1038.53 1308.27 1039.31C1343.45 1002.12 1385.84 961.239 1422.91 925.504C1406.27 915.944 1377.45 901.533 1359.89 894.051C1366.06 884.035 1393.55 850.818 1402.07 839.879C1377.99 832.408 1345.6 825.629 1320.78 819.774C1301.41 815.204 1271.47 807.751 1252.35 804.947C1211.5 834.138 1172.27 866.874 1132.06 897.053C1119.22 906.69 1106.05 918.215 1093.15 927.293C1101.73 917.301 1109.52 906.739 1116.98 895.902C1153.16 843.333 1190.5 790.896 1226.86 738.543Z"/><path fill="#111" d="M1023.99 941.471C1029.49 944.296 1043.07 973.74 1047.09 981.624C1060.9 983.408 1080.2 985.471 1093.33 988.535C1083.37 1000.76 1071.07 1010.94 1060.67 1023.66C1063.31 1040.28 1067.17 1056.22 1069.56 1073.15C1055.49 1066.01 1041.5 1058.71 1027.6 1051.25C1015.94 1051.29 994.474 1067.24 981.136 1072.1C982.859 1057.9 987.503 1039.08 990.701 1024.68C982.377 1014.11 967.439 999.76 957.676 988.992C970.029 986.151 992.371 982.308 1004.89 981.167C1010.94 966.993 1016.27 954.972 1023.99 941.471Z"/><path fill="#111" d="M1061.56 1470.8C1065.39 1463.07 1074.11 1459.1 1082.45 1461.28C1090.79 1463.47 1096.45 1471.21 1095.99 1479.82C1095.54 1488.43 1089.1 1495.54 1080.58 1496.83C1072.05 1498.13 1063.79 1493.26 1060.8 1485.17C1059.07 1480.48 1059.34 1475.28 1061.56 1470.8ZM1079.19 1489.2C1089.17 1482.99 1088.92 1471.24 1077.14 1468.61C1066.64 1474.44 1066.24 1486.78 1079.19 1489.2Z"/><path fill="#111" d="M1055.44 1484.39C1050.67 1495.65 1030.75 1503.04 1024.26 1491.88C1022.84 1489.43 1022.54 1465.6 1024.59 1462.63C1034.3 1457.72 1047.06 1459.94 1053.59 1469.16C1056.01 1475.96 1055.95 1477.27 1055.44 1484.39ZM1044.79 1485.96C1046.42 1481 1047.76 1477.85 1045.49 1473.04C1042.54 1470.17 1041.43 1469.75 1037.38 1469.77C1035.7 1469.8 1034.03 1469.86 1032.36 1469.96C1032.28 1474.91 1031.65 1480.9 1033.4 1485.29C1037.38 1489 1039.97 1487.65 1044.79 1485.96Z"/><path fill="#111" d="M985.811 1461.78C989.41 1461.19 989.204 1461.02 992.451 1462.58C998.448 1469.83 989.453 1486.09 1001.53 1486.71C1014.06 1487.36 1004.66 1463.17 1012.49 1460.19C1022.31 1464.06 1018.78 1480.97 1014.97 1488.17C1008.2 1500.96 994.808 1499.58 987.337 1487.36C985.82 1479.13 985.964 1470.2 985.811 1461.78Z"/><path fill="#111" fill-opacity="0.98823529" d="M1069.92 1415.83C1073.44 1415.47 1073.6 1415.48 1077.12 1415.91C1080.77 1418.07 1090.86 1443.5 1088.76 1449.14L1086.51 1449.32C1082.52 1447.77 1081.83 1446.56 1078.76 1443.35C1074.21 1443.32 1072.02 1442.47 1068.14 1445.22C1065.16 1447.34 1061.94 1449.26 1058.26 1448.81C1056.85 1442.94 1066.78 1421.99 1069.92 1415.83Z"/><path fill="#111" d="M1008.05 1416.03C1010.85 1416.07 1014.1 1415.91 1015.69 1418.63C1019.67 1425.47 1028.26 1443.71 1027.19 1451.09C1020.28 1452.4 1023.09 1446.39 1015.76 1443.47C1003.03 1442.53 1002.3 1451.09 994.629 1449.37C993.883 1445.65 1005.66 1419.67 1008.05 1416.03Z"/><path fill="#111" d="M972.902 1415.18C978.876 1415.16 991.726 1416.7 992.141 1424.43C986.445 1428.05 957.71 1416.83 970.741 1439.48C974.511 1446.04 981.439 1440.82 984.888 1437.77C988.11 1438.03 990.214 1437.84 992.862 1439.64C993.725 1442.87 993.8 1441.3 992.467 1444.5C986.021 1448.2 979.585 1451.8 971.909 1449.6C967.186 1448.21 963.291 1444.85 961.218 1440.38C959.197 1436.13 958.962 1431.25 960.565 1426.83C962.794 1420.69 967.239 1417.68 972.902 1415.18Z"/><path fill="#111" d="M979.979 1486.16C971.3 1503.66 948.121 1495.34 955.469 1482.93C959.218 1482.69 961.576 1485.45 966.572 1487.53C976.095 1485.18 967.823 1468.58 973.116 1461.42C976.756 1460.21 974.844 1460.55 979.285 1461.44C980.586 1470.55 980.849 1476.87 979.979 1486.16Z"/><path fill="#111" d="M1046.21 1416.2C1048.21 1416.13 1052.66 1415.77 1053.57 1417.89C1059.47 1431.62 1055.58 1454.13 1036.47 1450.33C1032.38 1447.21 1029.45 1445.79 1029.84 1440.16C1033.9 1438.29 1036.67 1442.06 1043.24 1440.75C1048.14 1436.38 1045.49 1425.85 1046.12 1417.26L1046.21 1416.2Z"/><path fill="white" fill-opacity="0.062745102" d="M979.285 1461.44C982.285 1461.82 982.78 1462.06 985.811 1461.78C985.964 1470.2 985.82 1479.13 987.337 1487.36C983.935 1483.45 984.95 1485.19 983.975 1479.82C983.124 1480.99 982.663 1483.53 982.25 1485.09L979.979 1486.16C980.849 1476.87 980.586 1470.55 979.285 1461.44Z"/><path fill="#E0322A" fill-opacity="0.81960785" d="M965.589 899.798C969.416 907.422 973.766 919.509 975.524 927.799C972.66 924.215 965.347 915.041 963.508 910.902L966.018 910.577L966.587 908.741C965.634 904.965 965.503 904.579 965.567 900.661L965.589 899.798Z"/><path fill="white" fill-opacity="0.062745102" d="M1053.59 1469.16C1057.56 1472.03 1057.06 1473.14 1061.56 1470.8C1059.34 1475.28 1059.07 1480.48 1060.8 1485.17L1058.04 1483.63L1055.44 1484.39C1055.95 1477.27 1056.01 1475.96 1053.59 1469.16Z"/></svg>