<?xml version="1.0" encoding="utf-8" ?><svg xmlns="http://www.w3.org/2000/svg" xmlns:xlink="http://www.w3.org/1999/xlink" width="1024" height="1024" viewBox="0 0 1024 1024"><path fill="#17253E" d="M363.272 365.016C389.024 364.411 416.267 364.988 442.221 364.857C442.918 368.552 443.856 372.356 444.708 376.032C448.394 376.003 452.349 375.895 456.011 375.958L498.797 564.024L514.335 633.577C516.363 642.654 519.235 653.194 520.977 662.033L458.845 661.994C457.841 657.661 456.882 653.318 455.968 648.965C452.871 648.907 449.773 648.87 446.675 648.853C443.239 633.28 439.955 617.674 436.822 602.037L383.233 601.974C379.422 621.903 374.809 642.165 371.244 662.059L312.128 662.006C312.889 658.231 314.191 652.624 314.681 648.992C309.71 648.979 305.184 648.949 300.203 648.666C304.482 630.371 308.257 611.385 312.356 592.994C328.926 516.913 345.899 440.919 363.272 365.016ZM396.557 535.084L424.24 535.153C423.052 530.978 421.99 524.86 421.079 520.435L414.603 488.894C413.222 482.165 411.936 474.824 410.009 468.291C405.885 490.396 400.388 513.208 396.557 535.084Z"/><path fill="#FA232A" d="M444.708 376.032C448.394 376.003 452.349 375.895 456.011 375.958L498.797 564.024L514.335 633.577C516.363 642.654 519.235 653.194 520.977 662.033L458.845 661.994C457.841 657.661 456.882 653.318 455.968 648.965L506.384 648.875L464.556 463.497L451.754 406.575C449.686 397.375 447.226 384.77 444.708 376.032Z"/><path fill="#FA232A" d="M369.843 588.551C390.978 588.787 412.601 588.559 433.773 588.559C434.815 593.09 435.511 597.539 436.822 602.037L383.233 601.974C379.422 621.903 374.809 642.165 371.244 662.059L312.128 662.006C312.889 658.231 314.191 652.624 314.681 648.992L357.228 648.989C362.195 629.593 364.815 608.35 369.843 588.551Z"/><path fill="#FA232A" d="M380.056 535.048C386.655 499.367 394.786 464.051 401.426 428.222C404.727 438.306 408.164 457.837 410.009 468.291C405.885 490.396 400.388 513.208 396.557 535.084C391.168 535.27 385.47 535.11 380.056 535.048Z"/><path fill="#17253E" d="M779.141 364.872L858.259 364.814C858.618 368.003 859.537 373.03 860.574 376.032C864.195 376.036 868.147 375.956 871.737 376.064L916.01 570.922L930.78 635.845C932.653 644.093 935.382 653.947 936.942 661.948C916.485 661.98 895.153 662.29 874.762 661.99C873.651 657.605 872.606 653.204 871.625 648.787C868.846 648.619 865.566 648.769 862.747 648.818C859.15 633.656 855.855 617.335 852.647 602.044L798.895 601.998C795.721 621.214 789.622 643.533 787.097 662.016L727.824 662.006C728.47 658.976 729.734 651.413 730.505 649.013C725.8 648.761 720.78 648.85 716.044 648.849C717.933 639.027 720.525 628.568 722.645 618.719C728.854 589.411 735.328 560.16 742.067 530.97L779.141 364.872ZM825.954 468.126C820.621 489.648 817.729 515.151 812.206 535.173C821.23 534.878 830.753 535.057 839.818 535.091C839.23 531.764 838.552 528.448 837.832 525.147C833.693 506.18 830.465 487.011 825.954 468.126Z"/><path fill="#FA232A" d="M860.574 376.032C864.195 376.036 868.147 375.956 871.737 376.064L916.01 570.922L930.78 635.845C932.653 644.093 935.382 653.947 936.942 661.948C916.485 661.98 895.153 662.29 874.762 661.99C873.651 657.605 872.606 653.204 871.625 648.787C876.8 649.199 884.931 648.966 890.324 648.957L922.404 648.884C914.094 614.057 906.22 579.127 898.784 544.103L877.149 448.399C871.949 425.442 866.493 398.426 860.574 376.032Z"/><path fill="#FA232A" d="M785.283 588.576L849.728 588.559C850.512 592.535 851.478 598.314 852.647 602.044L798.895 601.998C795.721 621.214 789.622 643.533 787.097 662.016L727.824 662.006C728.47 658.976 729.734 651.413 730.505 649.013C744.571 648.793 759.136 648.988 773.24 648.989C777.518 628.905 781.532 608.765 785.283 588.576Z"/><path fill="#FA232A" d="M795.832 535.213C803.357 499.974 809.465 463.259 817.472 428.105C820.938 440.064 823.628 455.69 825.954 468.126C820.621 489.648 817.729 515.151 812.206 535.173C808.587 535.487 799.816 535.229 795.832 535.213Z"/><path fill="#17253E" d="M93.929 605.037C93.3611 595.424 93.7919 584.87 93.8295 575.172L93.8833 524L93.7812 453.942C93.7663 447.389 92.6645 415.358 95.0189 411.572C104.083 396.996 121.338 382.577 133.413 370.098C138.005 365.353 143.638 363.324 150.193 363.111C176.38 362.781 202.638 362.462 228.828 362.505C233.479 362.513 239.363 364.132 242.635 367.63C254.169 379.963 266.31 391.98 277.611 404.518C285.788 410.587 293.448 416.824 294.727 427.649C296.519 442.815 293.763 464.323 295.308 479.012L231.005 479.007L230.882 465.431C227.762 465.233 223.293 465.217 220.214 465.47C219.782 456.286 220.037 444.3 219.95 434.954C218.72 433.367 218.244 432.857 216.787 431.466C205.664 431.492 193.973 431.697 182.896 431.515C177.354 436.72 171.882 442 166.483 447.354C166.101 491.801 165.943 536.249 166.011 580.697C169.243 584.435 172.549 588.107 175.928 591.712C186.011 591.482 196.719 591.786 206.888 591.75C211.659 587.306 216.486 582.329 221.115 577.69C221.016 568.369 221.494 557.269 220.848 548.126C234.166 547.768 247.886 548.223 261.234 548.048C266.915 547.974 274.708 548.353 280.133 547.752L280.525 558.127L295.091 558.043C295.363 574.787 296.515 598.397 293.678 614.582C292.92 618.91 249.91 660.406 245.044 660.919C217.441 663.829 188.39 661.685 160.591 662.002C147.411 662.251 141.83 656.896 134.509 646.65C132.339 645.009 123.002 635.15 120.732 632.791L93.929 605.037Z"/><path fill="#FA232A" d="M280.525 558.127L295.091 558.043C295.363 574.787 296.515 598.397 293.678 614.582C292.92 618.91 249.91 660.406 245.044 660.919C217.441 663.829 188.39 661.685 160.591 662.002C147.411 662.251 141.83 656.896 134.509 646.65C151.652 651.121 172.426 648.551 190.218 648.539C197.406 648.534 233.009 649.795 237.163 646.07C250.619 634.004 269.295 617.624 280.474 603.606C281.499 589.242 280.922 572.588 280.525 558.127Z"/><path fill="#FA232A" d="M172.367 418.978L204.7 419.056C208.794 422.209 213.262 427.51 216.787 431.466C205.664 431.492 193.973 431.697 182.896 431.515C177.354 436.72 171.882 442 166.483 447.354C166.101 491.801 165.943 536.249 166.011 580.697C169.243 584.435 172.549 588.107 175.928 591.712C173.551 591.885 170.84 591.899 168.431 591.971C163.07 586.982 157.115 580.62 151.911 575.31L151.909 438.599C155.345 434.536 168.161 421.848 172.367 418.978Z"/><path fill="#FA232A" d="M277.611 404.518C285.788 410.587 293.448 416.824 294.727 427.649C296.519 442.815 293.763 464.323 295.308 479.012L231.005 479.007L230.882 465.431C243.494 465.849 268.035 465.941 280.5 465.16C280.58 445.923 282.459 422.407 277.611 404.518Z"/><path fill="#17253E" d="M597.968 364.964C635.28 365.15 672.592 365.115 709.903 364.858C709.911 368.241 709.895 371.624 709.854 375.007L724.461 374.895L724.465 429.07C719.722 429.068 714.695 429.154 709.978 429.034C710.102 489.744 711.328 554.783 709.463 615.259C702.85 625.254 676.126 651.19 667.095 658.817C657.693 666.757 612.131 662.51 597.973 663.558C579.553 664.921 573.712 660.416 562.647 647.186C555.866 640.894 549.186 634.373 542.705 627.774C537.086 622.052 525.986 611.959 522.706 604.864C518.998 596.845 520.973 552.264 521.084 541.192C540.46 541.127 559.83 539.919 579.408 540.012C579.347 542.541 579.037 548.674 579.921 550.728L594.013 550.866C593.948 564.679 593.544 579.956 594.549 593.634C604.16 593.324 613.832 593.482 623.5 593.178C628.183 588.818 633.254 583.383 637.74 578.759C636.759 564.449 637.138 541.493 637.146 526.808L637.489 430.103C628.117 429.825 618.379 430.023 608.977 430.09L608.992 417.039C605.42 416.924 601.535 416.994 597.935 416.993C598.767 403.059 598.035 379.543 597.968 364.964Z"/><path fill="#FA232A" d="M709.854 375.007L724.461 374.895L724.465 429.07C719.722 429.068 714.695 429.154 709.978 429.034C710.102 489.744 711.328 554.783 709.463 615.259C702.85 625.254 676.126 651.19 667.095 658.817C657.693 666.757 612.131 662.51 597.973 663.558C579.553 664.921 573.712 660.416 562.647 647.186C565.23 647.346 572.852 649.985 575.336 649.841C588.671 649.068 644.263 653.02 653.047 646.681C663.507 639.133 688.875 613.422 695.427 603.863C696.439 580.685 695.937 556.073 695.93 532.735L695.897 417.055L709.867 417.072C710.057 403.051 710.052 389.028 709.854 375.007Z"/><path fill="#FA232A" d="M579.921 550.728L594.013 550.866C593.948 564.679 593.544 579.956 594.549 593.634C588.24 588.804 584.799 584.719 579.585 578.79C579.551 575.359 579.035 552.144 579.921 550.728Z"/><path fill="#FA232A" d="M608.992 417.039L637.056 417.063C637.342 421.404 637.487 425.753 637.489 430.103C628.117 429.825 618.379 430.023 608.977 430.09L608.992 417.039Z"/></svg>