<?xml version="1.0" encoding="utf-8" ?><svg xmlns="http://www.w3.org/2000/svg" xmlns:xlink="http://www.w3.org/1999/xlink" width="1024" height="1024" viewBox="0 0 1024 1024"><path fill="#F7F2E7" d="M0 0L1024 0L1024 1024L0 1024L0 0Z"/><path fill="#17233F" d="M510.943 213.69C511.137 212.157 511.674 207 512.71 211.474C530.633 294.065 546.972 376.991 561.718 460.208C585.948 464.401 611.401 470.558 635.641 475.577C692.531 487.147 749.349 499.068 806.091 511.34L813.056 512.834C810.746 513.287 808.398 513.774 806.087 514.199C804.108 514.635 802.137 515.242 800.124 515.494C784.203 519.484 767.128 522.733 751.019 526.265L632.954 551.449L589.626 560.677C581.684 562.393 572.232 564.231 564.474 566.323C555.413 611.572 546.108 656.772 536.558 701.92L520.319 777.276C518.441 786.205 515.751 796.797 514.219 805.546L513.212 809.44C513.056 810.319 513.012 811.082 512.942 811.968C512.671 812.208 512.257 812.725 512.031 812.99L511.792 810.891C509.442 802.528 507.227 790.326 505.389 781.599L495.035 732.568L460.731 564.641L342.703 540.208C312.935 534.391 283.221 528.297 253.566 521.926C241.435 519.376 228.858 517.216 216.844 514.34C217.747 513.362 217.712 513.326 218.869 512.665C218.243 512.18 218.218 512.167 217.475 511.835C218.993 511.558 220.483 511.168 221.999 510.886L222.968 510.693L371.661 479.127C400.582 473.083 431.316 465.831 460.258 460.712C476.235 378.186 493.131 295.84 510.943 213.69Z"/><path fill="#F7102B" d="M510.943 213.69C511.137 212.157 511.674 207 512.71 211.474C530.633 294.065 546.972 376.991 561.718 460.208C585.948 464.401 611.401 470.558 635.641 475.577C692.531 487.147 749.349 499.068 806.091 511.34L813.056 512.834C810.746 513.287 808.398 513.774 806.087 514.199C804.108 514.635 802.137 515.242 800.124 515.494C799.398 513.33 797.713 513.781 795.438 513.006L680.251 512.868L644.83 512.94C638.051 512.952 628.801 513.172 622.242 512.604C612.821 513.16 597.283 512.639 587.315 512.627L512.093 512.68L511.96 338.921C511.54 298.05 511.558 257.175 512.016 216.304C511.685 215.394 511.325 214.58 510.943 213.69Z"/><path fill="#C1272D" d="M806.091 511.34L813.056 512.834C810.746 513.287 808.398 513.774 806.087 514.199C804.108 514.635 802.137 515.242 800.124 515.494C799.398 513.33 797.713 513.781 795.438 513.006L680.251 512.868L644.83 512.94C638.051 512.952 628.801 513.172 622.242 512.604C630.709 511.846 642.072 512.501 655.343 512.423C704.541 512.138 755.626 512.879 804.972 512.289C805.345 511.972 805.718 511.656 806.091 511.34Z"/><path fill="#2B102D" d="M795.438 513.006C798.765 512.9 803.375 512.252 806.087 514.199C804.108 514.635 802.137 515.242 800.124 515.494C799.398 513.33 797.713 513.781 795.438 513.006Z"/><path fill="#C1272D" d="M510.943 213.69C511.137 212.157 511.674 207 512.71 211.474C511.774 213.434 512.144 213.971 512.016 216.304C511.685 215.394 511.325 214.58 510.943 213.69Z"/><path fill="#F7102B" d="M217.475 511.835C218.993 511.558 220.483 511.168 221.999 510.886L222.968 510.693C223.907 511.918 224.067 512.013 225.512 512.64C225.861 512.791 226.208 512.944 226.554 513.101C242.485 513.989 260.913 513.778 276.938 513.799L353.46 513.792L458.038 513.67C475.799 513.64 494.426 513.977 512.117 513.508L512.642 733.131C512.622 754.409 511.848 777.35 512.081 798.311C512.475 801.251 512.559 803.149 512.256 806.106L514.219 805.546L513.212 809.44C513.056 810.319 513.012 811.082 512.942 811.968C512.671 812.208 512.257 812.725 512.031 812.99L511.792 810.891C509.442 802.528 507.227 790.326 505.389 781.599L495.035 732.568L460.731 564.641L342.703 540.208C312.935 534.391 283.221 528.297 253.566 521.926C241.435 519.376 228.858 517.216 216.844 514.34C217.747 513.362 217.712 513.326 218.869 512.665C218.243 512.18 218.218 512.167 217.475 511.835Z"/><path fill="#6B1721" d="M512.081 798.311C512.475 801.251 512.559 803.149 512.256 806.106L514.219 805.546L513.212 809.44C513.056 810.319 513.012 811.082 512.942 811.968C512.671 812.208 512.257 812.725 512.031 812.99L511.792 810.891C512.045 806.498 511.876 802.598 512.081 798.311Z"/><path fill="#2B102D" d="M512.256 806.106L514.219 805.546L513.212 809.44C512.689 808.562 512.496 808.085 512.377 807.051L512.256 806.106Z"/><path fill="#2B102D" d="M217.475 511.835C218.993 511.558 220.483 511.168 221.999 510.886L222.968 510.693C223.907 511.918 224.067 512.013 225.512 512.64C225.861 512.791 226.208 512.944 226.554 513.101C223.578 513.056 221.807 513.065 218.869 512.665C218.243 512.18 218.218 512.167 217.475 511.835Z"/><path fill="#17233F" d="M623.408 387.356C625.543 388.919 634.545 398.423 636.623 400.645C627.297 411.783 612.999 424.689 602.687 436.413C599.692 434.121 592.462 426.058 589.185 422.824C600.158 411.206 612.217 398.609 623.408 387.356Z"/><path fill="#17233F" d="M420.477 589.261C422.368 589.833 431.942 600.478 433.922 602.624C429.635 607.566 424.961 612.217 420.372 616.874C413.647 623.698 407.22 631.01 400.381 637.712C398.108 635.912 389.776 626.939 386.965 624.227C397.449 614.35 410.131 599.891 420.477 589.261Z"/><path fill="#17233F" d="M602.378 589.329C604.171 590.718 607.726 594.902 609.576 596.799C618.593 606.044 627.893 615.03 636.856 624.319C632.397 629.108 628.558 633.33 623.889 638.035C621.914 637.038 593.246 607.119 589.787 603.509C594.213 598.99 598.415 594.258 602.378 589.329Z"/><path fill="#17233F" d="M399.812 386.331C401.827 387.544 409.13 395.788 411.371 398.091C418.719 405.643 426.715 413.052 433.921 420.679L433.489 421.239C431.507 423.849 423.851 432.167 421.328 434.941C410.157 423.993 398.196 410.704 386.954 400.298C391.47 395.721 395.257 390.935 399.812 386.331Z"/><path fill="#C1272D" d="M213.034 512.593C214.542 512.346 215.959 512.029 217.475 511.835C218.218 512.167 218.243 512.18 218.869 512.665C217.712 513.326 217.747 513.362 216.844 514.34C215.286 513.921 214.535 513.785 212.933 513.743L213.034 512.593Z"/><path fill="#BC7A7B" d="M512.942 811.968C512.95 812.199 513.172 814.276 512.403 814.124C512.075 813.851 512.1 813.409 512.031 812.99C512.257 812.725 512.671 812.208 512.942 811.968Z"/><path fill="#BC7A7B" d="M212.933 513.743C212.619 513.69 211.117 513.543 210.892 513.231C211.367 512.809 212.43 512.694 213.034 512.593L212.933 513.743Z"/></svg>