<?xml version="1.0" encoding="utf-8" ?><svg xmlns="http://www.w3.org/2000/svg" xmlns:xlink="http://www.w3.org/1999/xlink" width="1024" height="1024" viewBox="0 0 1024 1024"><path fill="#172340" d="M436.302 293.149C440.31 293.636 452.296 293.25 457.009 293.221L497.704 293.084C541.198 293.065 585.701 293.75 629.045 293.224C640.447 304.926 650.835 317.847 662.392 329.59L696.162 363.839C700.162 367.93 709.776 377.479 712.96 381.745C710.506 389.274 708.192 404.021 706.437 412.204C701.697 434.287 697.867 456.91 693.223 478.978C654.942 478.679 616.479 479.318 578.243 478.887C573.774 475.107 568.083 469.012 563.82 464.765C558.012 459 552.075 453.366 546.014 447.867C547.718 439.562 549.358 426.675 551.964 418.815C540.259 418.905 531.337 418.454 521.349 425.618C505.992 436.632 503.872 452.852 500.248 470.015L493.015 504.588L481.509 560.502C479.023 572.501 476.174 585.1 474.129 597.121C486.932 597.051 502.728 598.823 514.023 591.433C519.702 587.718 521.394 579.875 522.354 573.538C524.251 561.023 526.96 548.551 528.716 536.01L625.965 535.947C631.244 535.803 635.696 535.905 640.947 536.086C642.774 538.106 644.818 540.599 646.554 542.737C655.216 553.407 665.631 563.182 674.3 573.736C672.344 587.313 668.328 604.775 665.68 618.606C663.803 628.508 661.858 638.397 659.845 648.272C659.048 652.183 657.297 663.798 654.827 666.303C633.933 687.504 610.918 707.519 591.011 729.721C542.893 729.232 494.592 730.49 446.45 729.873C431.029 729.675 415.419 729.619 400.013 729.961C396.303 726.73 392.961 723.114 389.61 719.522C376.18 705.13 362.025 691.463 348.206 677.449C335.239 664.3 322.907 650.53 309.7 637.613C312.415 623.154 315.733 608.035 318.617 593.507L346.216 456.339L359.014 392.728C360.969 383.04 363.649 367.506 366.324 358.506C388.8 337.608 409.747 314.813 432.522 294.212C433.321 293.489 435.255 293.269 436.302 293.149Z"/><path fill="#C2282D" d="M440.889 308.488C444.559 308.112 455.504 308.439 459.716 308.474L497.713 308.751L618.576 308.49C632.423 321.492 653.13 345.047 665.028 359.645C659.181 385.472 654.653 412.947 649.395 439.019L562.957 438.956C565.114 425.006 570.28 409.113 566.643 395.462C560.203 373.675 544.906 376.771 527.995 376.04C501.166 374.88 474.759 375.391 461.625 402.992C455.323 416.237 453.675 432.613 450.812 447.298L440.619 498.914L431.532 543.284C428.599 557.303 422.015 582.015 426.801 595.307C429.158 601.894 434.101 607.234 440.487 610.091C443.039 611.238 445.759 611.967 448.542 612.25C458.738 613.371 470.623 612.125 480.994 612.631C486.237 612.887 492.807 612.752 497.978 612.202C502.231 611.789 506.41 610.812 510.405 609.295C523.243 604.291 528.912 596.258 534.17 584.123C537.425 575.4 539.362 561.496 541.237 551.978C569.688 551.834 598.141 551.852 626.592 552.032C622.953 567.273 620.191 582.744 617.247 598.131C615.626 606.602 614.715 616.448 611.229 624.361C608.043 631.594 559.72 675.458 550.167 683.426C492.03 683.835 433.891 683.866 375.754 683.519C360.679 668.385 340.219 645.589 326.337 629.495C327.838 622.949 329.047 615.295 330.466 608.544L344.37 541.524L377.568 378.227C378.007 376.008 379.815 367.732 381.231 366.119C394.097 351.467 409.316 338.551 423.113 324.729C427.898 319.935 435.527 312.081 440.889 308.488Z"/></svg>