<?xml version="1.0" encoding="utf-8" ?><svg xmlns="http://www.w3.org/2000/svg" xmlns:xlink="http://www.w3.org/1999/xlink" width="1024" height="1024" viewBox="0 0 1024 1024"><path fill="white" d="M0 0L1024 0L1024 1024L0 1024L0 0Z"/><path fill="#231E1E" d="M503.589 196.13C678.078 191.492 823.28 329.204 827.88 503.695C832.48 678.185 694.736 823.357 520.245 827.919C345.807 832.48 200.689 694.787 196.091 520.351C191.492 345.914 329.153 200.766 503.589 196.13Z"/><path fill="white" d="M495.376 203.207C666.003 194.017 811.745 324.948 820.823 495.581C829.9 666.214 698.872 811.87 528.233 820.835C357.754 829.791 212.264 698.912 203.195 528.439C194.126 357.965 324.908 212.389 495.376 203.207Z"/><path fill="#231E1E" d="M471.282 271.659C490.493 268.945 503.082 277.821 512.233 293.924C524.758 269.192 548.986 266.407 572.629 277.427C588.516 284.789 600.789 298.213 606.7 314.695C616.061 340.923 607.824 371.063 596.273 395.277C624.986 368.685 666.8 342.442 705.759 369.292C717.74 377.548 726.034 391.31 728.218 405.699C730.344 419.698 726.336 428.337 718.111 439.427C727.383 441.226 738.901 445.055 744.461 452.717C763.021 478.295 755.576 515.289 731.394 534.075C709.177 551.333 680.855 558.125 654.378 555.845C675.9 570.559 689.782 581.265 701.34 606.065C709.397 622.928 710.744 639.986 704.031 657.621C694.985 681.386 670.633 698.355 645.344 688.593C651.141 721.799 614.944 743.592 585.546 739.233C562.395 735.8 545.112 719.951 531.445 702.082C519.216 684.455 516.138 672.641 512.073 652.277L511.955 652.937C506.394 682.969 490.015 711.768 464.57 729.189C451.471 738.206 435.315 741.619 419.689 738.671C405.743 736.017 392.436 727.731 384.317 715.972C378.207 707.123 377.566 698.283 379.51 687.983C359.239 695.928 341.288 688.749 327.978 671.976C318.35 659.844 314.178 641.217 316.535 625.986C319.803 604.866 333.73 584.243 349.851 570.623C356.321 565.181 362.826 560.976 369.512 555.939C346.05 556.555 325.285 553.505 303.816 541.733C273.46 525.091 260.442 488.46 276.965 457.233C283.144 445.556 294.201 442.245 306.347 439.186C288.86 421.546 295.873 392.785 311.344 376.244C321.82 365.048 336.387 358.579 351.717 358.315C381.371 357.566 406.329 374.749 426.998 394.354C414.447 363.799 405.207 326.861 426.725 297.933C437.538 283.65 453.55 274.208 471.282 271.659Z"/><path fill="#3F61ED" d="M456.822 529.071L457.206 529.021C457.483 529.147 457.761 529.273 458.038 529.4C459.985 535.722 461.029 538.936 465.606 543.684C438.579 556.859 415.594 566.814 395.066 590.874C392.066 594.391 382.341 607.091 382.716 611.66C383.609 612.893 383.543 612.805 384.973 613.354C387.785 612.303 393.579 600.643 396.248 597.375C415.814 573.423 442.769 559.478 470.481 546.826C478.954 549.628 481.801 549.195 490.42 548.255C483.444 555.532 475.636 562.201 468.551 569.743C446.113 593.892 426.373 620.414 409.681 648.839C408.625 650.628 408.605 651.369 409.142 653.44C410.315 654.656 409.609 654.321 411.37 654.396C414.089 653.241 420.486 641.445 422.364 638.442C426.807 631.371 431.468 624.44 436.339 617.657C454.458 592.318 468.739 575.5 491.375 554.673C493.727 559.462 494.468 560.604 498.452 564.048C482.408 597.213 479.274 637.609 451.803 665.142C449.894 667.087 447.991 669.457 451.167 671.499C451.537 671.485 452.195 671.499 452.482 671.255C482.921 645.328 487.099 600.315 502.656 565.949C505.49 567.348 506.109 567.551 509.197 568.248C508.596 598.018 510.975 624.559 504.93 654.218C500.091 681.054 483.365 708.451 460.707 724.018C436.935 739.525 405.579 735.149 389.237 711.242C385.504 705.779 384.977 700.576 385.218 694.203C385.372 690.127 388.91 681.786 387.006 678.787C380.846 677 366.461 692.811 346.62 679.911C317.774 661.156 316.469 625.985 333.773 599.181C359.694 559.033 412.409 539.817 456.822 529.071Z"/><path fill="#3F61ED" d="M567.071 528.297C578.391 531.302 589.857 534.433 600.788 538.668C638.021 553.089 677.989 570.499 695.535 609.19C702.304 624.115 704.01 639.238 698.062 654.757C691.747 671.433 676.253 685.933 657.51 684.812C651.52 684.454 640.17 677.426 636.984 678.851C633.979 684.449 647.022 697.789 631.744 715.713C622.878 725.928 610.352 732.25 596.868 733.316C579.534 734.554 564.312 725.704 551.702 714.617C506.548 674.916 518.104 619.564 515.079 568.097C517.225 567.908 519.591 567.577 521.751 567.325C522.937 569.862 523.965 572.584 524.949 575.217C535.457 603.328 542.043 633.572 559.603 658.47C561.847 661.652 568.911 670.537 572.559 671.587C574.314 671.101 573.599 671.581 574.685 669.967C574.845 667.712 575.043 668.777 573.925 666.683C553.18 646.17 545.189 618.018 536.282 591.127C533.275 582.05 530.048 573.048 526.606 564.127C529.544 561.173 531.559 558.734 533.617 555.139C559.248 574.848 581.232 609.525 600.105 635.844C603.267 640.255 608.96 652.333 613.577 654.372C615.585 654.177 614.712 654.546 616.257 653.148C616.821 648.465 580.225 598.198 576.195 593.018C569.691 584.688 562.884 576.598 555.787 568.766C552.743 565.453 536.195 550.322 535.678 548.245C536.939 547.264 537.565 547.599 539.237 547.851C544.719 548.677 548.627 548.943 553.942 546.857L554.458 546.649C582.031 557.16 615.56 579.272 632.126 603.828C633.892 606.446 636.647 612.294 639.378 613.254L640.451 612.554C640.92 611.544 641.513 610.277 640.984 609.185C625.883 577.967 589.304 556.934 559.677 543.125C564.62 537.408 565.522 535.574 567.071 528.297Z"/><path fill="#3F61ED" d="M664.341 365.195C677.974 362.479 696.855 369.159 706.661 378.65C715.298 387.009 721.867 399.526 722.194 411.757C722.394 419.238 719.789 428.279 714.41 433.649C711.496 436.452 708.409 438.517 705.508 441.598C705.015 443.592 704.967 442.612 705.838 444.624C707.491 445.512 713.635 445.93 715.751 446.073C741.161 447.222 750.92 471.689 747.593 494.261C742.97 525.628 713.522 541.674 685.39 547.312C647.558 554.894 624.349 540.174 590.419 528.499C583.923 526.263 573.629 523.038 566.987 522.26L564.515 515.47C577.743 515.476 592.301 515.432 605.455 515.408C615.342 515.39 669.981 513.496 672.853 505.762C672.664 504.251 672.614 504.361 671.548 503.235C668.961 503.1 661.205 505.361 658.134 506.014C653.297 507.034 648.405 507.772 643.482 508.224C633.906 509.098 564.355 512.331 561.321 509.308C560.837 505.941 564.29 501.883 566.289 498.49C574.36 495.256 582.732 491.132 591.12 487.739C616.923 477.55 642.377 469.776 669.022 462.104C671.147 461.493 674.834 460.066 674.06 457.402C670.881 455.286 666.717 457.498 663.499 458.426C631.367 467.684 597.609 477.097 567.859 492.67C567.979 486.048 568.118 483.296 564.31 477.579C578.88 458.754 622.76 427.935 646.526 423.044C649.111 422.512 650.638 422.204 652.014 419.981C651.935 418.448 651.961 418.554 650.992 417.358C650.466 417.171 649.577 416.913 649.038 417.029C617.178 423.885 582.602 450.336 561.063 473.035C555.169 467.992 550.965 467.562 543.658 467.156C551.017 458.058 560.334 448.836 568.12 439.032C593.167 407.495 621.256 370.36 664.341 365.195Z"/><path fill="#3F61ED" d="M347.803 365.157C382.053 360.565 420.109 393.341 439.876 418.536C453.579 436.003 465.666 450.852 481.107 466.999C473.286 467.907 470.074 468.466 464.347 473.797C447.236 451.77 409.565 427.17 382.671 418.644C380.007 417.8 373.127 415.832 372.777 419.91C374.344 423.225 380.916 423.642 384.604 424.949C412.861 434.963 440.406 455.846 461.345 477.058C458.343 482.737 458.22 486.689 457.988 492.899C446.522 487.691 435.045 482.198 423.25 477.754C401.102 469.411 378.065 463.593 355.484 456.586C353.804 456.064 351.989 456.046 350.472 456.992C349.662 458.5 349.811 457.725 349.959 459.391C351.042 460.502 352.372 461.186 353.861 461.637C377.296 468.735 400.939 475.232 423.865 483.883C435.892 488.632 447.543 493.918 459.35 499.18C460.531 501.164 464.776 506.93 465.025 508.135C464.865 508.263 464.716 508.407 464.544 508.519C457.95 512.806 387.024 509.006 377.195 507.892C368.925 506.954 361.069 504.575 352.919 503.108C351.719 503.678 352.236 503.449 351.355 504.975C351.407 505.643 351.284 506.136 351.778 506.653C361.315 516.624 444.001 515.21 460.709 515.138L458.178 522.85C433.249 528.177 414.054 534.869 390.787 544.544C369.886 553.234 334.085 549.053 314.058 539.531C299.404 532.565 284.77 520.708 279.717 504.616C271.557 481.246 277.947 448.675 307.131 446.144C310.586 445.845 316.113 446.173 319.196 445.117C319.469 444.638 320.304 443.151 319.795 442.515C317.008 439.022 313.051 436.569 310.112 433.148C298.177 419.256 301.606 399.933 311.784 386.096C321.149 373.366 332.45 367.545 347.803 365.157Z"/><path fill="#3F61ED" d="M473.862 278.19C487.368 276.342 500.076 284.607 505.613 296.716C506.73 299.158 509.689 308.412 512.309 308.583C515.554 306.404 516.744 299.748 518.873 295.531C520.381 292.606 522.311 289.918 524.602 287.554C530.24 281.706 537.963 278.033 546.18 278.129C578.776 278.508 605.222 306.386 604.149 339.096C602.512 388.969 568.845 432.508 535.257 466.467C534.038 461.229 533.576 460.537 530.216 456.363C532.109 452.985 534.471 449.71 536.28 446.222C547.979 423.668 558.857 398.816 560.316 373.157C560.526 369.462 560.479 356.735 558.737 354.254C556.986 353.175 557.885 353.36 556.006 353.448C555.579 353.782 555.152 354.116 554.725 354.449C554.318 360.291 555.318 370.468 554.786 376.067C552.255 402.676 539.566 429.996 526.498 452.733C522.493 450.171 519.488 449.444 514.988 448.226C514.795 434.328 514.92 420.168 514.915 406.25L514.848 360.964C514.848 354.914 516.708 342.277 511.96 338.656L510.71 338.931C508.683 341.818 509.47 373.216 509.472 379.137L509.556 448.848C504.666 449.358 503.528 450.055 499.303 452.297C484.933 433.403 471.978 399.005 469.634 375.192C469.126 369.124 469.173 363.039 470.106 357.014C470.434 354.901 469.063 352.295 466.681 352.808C464.891 354.667 464.813 356.824 464.419 359.29C460.227 385.544 478.931 435.491 495.258 456.267C492.399 459.693 491.448 462.012 489.693 466.006C456.474 435.106 426.852 394.429 420.936 348.276C416.466 313.399 437.982 282.244 473.862 278.19Z"/><path fill="#3F61ED" d="M545.065 473.328C554.035 473.123 561.469 480.236 561.659 489.207C561.849 498.177 554.722 505.599 545.751 505.773C536.802 505.947 529.403 498.842 529.213 489.894C529.024 480.945 536.116 473.533 545.065 473.328Z"/><path fill="#3F61ED" d="M508.48 455.079C517.081 452.723 525.965 457.78 528.33 466.38C530.694 474.979 525.644 483.867 517.046 486.239C508.439 488.613 499.537 483.556 497.17 474.946C494.803 466.336 499.868 457.439 508.48 455.079Z"/><path fill="#3F61ED" d="M477.829 473.655C486.604 472.458 494.691 478.589 495.908 487.361C497.125 496.133 491.012 504.234 482.242 505.471C473.446 506.711 465.313 500.574 464.092 491.775C462.871 482.975 469.027 474.856 477.829 473.655Z"/><path fill="#3F61ED" d="M508.821 531.145C514.449 529.82 520.353 531.626 524.277 535.872C528.201 540.118 529.536 546.147 527.772 551.652C526.008 557.158 521.419 561.289 515.758 562.464C507.165 564.249 498.733 558.796 496.835 550.228C494.937 541.659 500.278 533.156 508.821 531.145Z"/><path fill="#3F61ED" d="M510.128 492.834C518.833 491.483 526.996 497.412 528.403 506.108C529.809 514.804 523.931 523.004 515.244 524.465C506.479 525.939 498.19 519.997 496.771 511.223C495.353 502.45 501.346 494.198 510.128 492.834Z"/><path fill="#3F61ED" d="M478.503 511.114C487.149 510.192 494.931 516.391 495.965 525.025C497 533.659 490.903 541.521 482.283 542.667C476.607 543.423 470.963 541.065 467.51 536.497C464.057 531.928 463.329 525.855 465.605 520.6C467.881 515.345 472.808 511.721 478.503 511.114Z"/><path fill="#3F61ED" d="M542.063 511.216C550.614 509.509 558.931 515.052 560.648 523.601C562.365 532.15 556.832 540.473 548.285 542.2C539.724 543.93 531.383 538.386 529.663 529.823C527.944 521.259 533.498 512.925 542.063 511.216Z"/></svg>